<svg fill="currentColor" xmlns="http://www.w3.org/2000/svg"><defs><pattern id="pattern" x="0" y="0" width="1024" height="1024" patternUnits="userSpaceOnUse"><path d="M993.94.11h28C1015.87,9.47,1007,15.47,997.14,20c-8.06,3.68-16.34,6.93-24.65,10-12.12,4.5-22.11,11.19-26.1,24.26a117.72,117.72,0,0,1-21.12,39.84c-6.25,7.77-8.57,16.68-8.55,26.71s2.25,19.7.39,29.76c-2.06,11.18-6.15,21.09-13.7,29.56-7.8,8.73-17.58,14.91-27.38,21-8.38,5.24-15.92,11.33-20,20.66-2.22,5.11-3.53,10.63-6,15.63-8.51,17.61-8.19,35.86-5.44,54.65,1.59,10.9-1.14,20.64-10.91,28-11.07,8.32-22.83,14.95-36,18.84-11.89,3.5-20.23,10.8-25.08,22.06a103.39,103.39,0,0,1-15.38,25.83c-6.78,8.13-14.22,15.63-25.57,16.1-11.78.49-21.59-4.27-28.74-13.77-4.64-6.19-8.7-12.81-13.4-18.95-11.26-14.7-29.26-17.65-44.73-24.93-3.93-1.85-8.25,1-9.53,4.89-1.11,3.4,1.17,7.17,5.44,8.75a46.93,46.93,0,0,0,4.75,1.14c10.42,2.61,20.37,6.22,29,12.91,7.41,5.74,11.73,13.82,16.67,21.39,9.27,14.19,22.85,20.77,39.13,21.5,11.36.5,21.05-4.73,29-12.72,9.65-9.67,17.72-20.51,22.92-33.23,4.08-10,10.86-16.79,21.34-19.77,12.16-3.47,22.94-9.63,33.3-16.77,13.79-9.51,22.17-21.52,20.11-39.12-.88-7.55-1.49-15.14-2-22.72-.87-12.8,5.2-23.88,8.94-35.55,3.43-10.69,9.65-19,19.34-24.76a156.69,156.69,0,0,0,24.57-17.53c20.3-18.26,24.43-42,21.75-67.5-1-9.45.68-17.75,6.1-25.22,7.84-10.8,15.6-21.7,19.35-34.66,4-13.77,12.63-21.89,26.15-26.45C992.48,36,1003.65,31.5,1014,25.2c3.52-2.15,6-5.71,10-7.09v24A194.32,194.32,0,0,0,993.5,53.28C983.3,57.92,975.13,65,969.74,74.92,964,85.48,957.87,95.84,953.5,107.08a75.7,75.7,0,0,0-3.66,13.21c-2.18,11.18-.08,22.49-1.73,33.74-2.58,17.6-9.38,33-21,46.32-6.63,7.58-15.52,12.31-23.87,17.62-14.09,9-24.26,20.75-28.59,37.12-1.56,5.9-3,11.83-2.66,18,.62,9.65-.81,19.14-1.93,28.68-.5,4.24,1.81,6.94,6.2,7.21s6.57-2.57,7.64-6.36c.35-1.24,0-2.65.09-4,.51-10.44-.61-20.88.85-31.36,2.14-15.44,8.81-27.7,21.83-36.58,9-6.11,18.72-11.14,26.68-18.61,10.82-10.15,17.41-23,22.64-36.69,5.5-14.34,5.71-29.37,6-44.41.06-3.13-.25-6.24.45-9.41,3.35-15.18,11.19-28.27,18.92-41.42a31.56,31.56,0,0,1,8.25-9.78C999.92,62.71,1012,59,1023.94,55.1v18q-24.53,6.57-36.05,29.2c-7,13.8-8.19,28.63-8,43.77.1,7.09.48,14.18-1.5,21.2-4.46,15.8-12.79,29.84-19.78,44.49a40.12,40.12,0,0,1-17.92,18.62c-6,3.11-12.16,5.77-18.16,8.82-9.29,4.72-16.22,11.66-19.94,21.6-3,7.9-3.54,16.12-3,24.37.46,6.51.64,13-1,19.27-2.53,9.39-10.36,13.72-18.36,17.47-6.15,2.89-12,6.06-17.21,10.53-13.38,11.57-26.71,23.15-42.38,31.74-8.44,4.63-16.62,10.2-22.17,18.1-11.29,16.07-24.14,30.73-37.62,44.91-7.16,7.53-15.16,12-26,8.9-8.66-2.45-17.36-5.07-26.23-6.34-15-2.15-24.58-9.77-30.47-23.72-5.73-13.6-16.34-22.9-30.09-28.48-5.31-2.16-10.92-3.66-15.9-6.6-10-5.89-13.37-16.63-8-27.9,4.33-9.14,13.29-15.81,25.27-12.14,11,3.36,21.78,7.21,32.82,10.32,11.23,3.17,19.37,9.45,23.74,20.44a34.67,34.67,0,0,0,10.47,14.24,19.57,19.57,0,0,0,16,4.43c8.42-1.26,14.16-6.09,18.43-12.83,6.64-10.48,10.57-21.67,5-33.91-3.29-7.28-9.34-12.35-16-16.52-18.17-11.44-38.71-15.64-59.48-19-5.66-.92-11.47-1.2-16.56-4.3-3.21-1.95-4.35-4.82-3.92-8.43.42-3.46,3-5,5.78-6.19,5.24-2.3,10.46-.47,15.59.37,11.34,1.84,22.59,4.19,34,5.6,10.69,1.33,20.85,3.75,29.2,11.65,5.19,4.92,10.22,10,15.48,14.86,7.81,7.21,16.48,11.74,27.69,10.55a62.37,62.37,0,0,0,27.12-9.57c9.67-6.1,15-14.62,14.13-26.47s-8.43-20.23-20.54-20.2c-6.69,0-12.47,2.64-18.57,4.47-5.68,1.71-11.17,2-15.67-2.66s-4.33-12-.22-18.8c3.23-5.33,9-7.44,15.28-6.11,4.72,1,9.05,3,13.56,4.52a32.61,32.61,0,0,0,18.06,1.19c11-2.58,15.82-12.69,17-23.41,1-9.32-4.51-17.13-14.05-21-9-3.68-18.35-6-28.22-6.09-7,0-14-.53-20.92-1-10.58-.65-18.76-10.12-16.54-19.83a36.15,36.15,0,0,1,14.3-21.92c5.83-4.18,12.51-4.07,18,0,2.71,2,4.19,5,5.62,8,4.8,10,11.72,17.85,22.39,21.86,5.51,2.07,10.92,4.44,16.51,6.26a35.73,35.73,0,0,0,20.46.78c13.82-3.64,24.62-12.16,33.38-22.82a46.35,46.35,0,0,0,10.38-37.86c-1.19-7.77-4.14-14.73-7-21.85-4.81-11.81-2.33-17.28,9.58-21.59,9-3.26,16.34-8.69,21.44-16.76,4.89-7.72,8.53-16.2,7.63-25.49-1.12-11.48-9.09-17.93-19.19-21.6-15.69-5.69-31.79-10.14-47.11-17-10.37-4.64-21.3-1.32-28.05,7A46,46,0,0,0,829,27.59c-4.36,12-8.87,24-13,36-3.31,9.72-10,14.85-20,15.41-14.91.84-29.86,1.17-44.77,2.13-9,.58-18.13,1.37-25.35,7.93-4.86,4.42-8.06,10-10.87,15.8-8.06,16.63-16.76,32.83-29.67,46.36-12.08,12.65-16,26.67-7.62,43.09,1.47,2.87,2.84,6.29,1.83,10-1.41,5.08-5.23,7.36-9.88,7.58s-9-1.39-11.8-5.83c-2.28-3.67-2.44-7.9-2.8-11.88-1.65-18.66-15.33-22.37-29.78-19.53a18.88,18.88,0,0,0-13.9,11.61,39.33,39.33,0,0,0-3.37,15.82c.09,9.47-1.77,18.35-6.88,26.37-9.43,14.83-16.55,30.21-15.46,48.54.28,4.59-1.87,10-7.35,11.83s-10-.55-13.72-4.63c-.45-.49-1-.91-1.41-1.42a64.4,64.4,0,0,0-24.83-17.65c-11-4.46-21.19-10.39-31.57-16.09-22.88-12.56-25.4-38.39-18.83-56.2,1.6-4.32,4.28-7.58,9.15-8.88,8.2-2.2,19.05,2,25.1,10.17a67,67,0,0,0,9.87,10.52c6.42,5.67,17.15,6.18,23.37,1.34,10.33-8,12.89-27.62,4.22-37.55-9.76-11.19-23-17.41-36.68-22.2-6.12-2.14-12.89-2.32-19.19-4-6.81-1.84-9.79-6.87-8.83-13.44.67-4.59,5.86-8.29,11.76-8.72,11.2-.8,20.52,3.23,29,10.23,7.49,6.15,14.48,13,23.64,16.95,9.66,4.12,20.87,1.19,26.66-6.16,8.73-11.07,2.2-30.83-10.06-37-3.22-1.61-6.47-3.16-9.65-4.85-3-1.57-5.53-3.54-6.44-7-2.05-8,4.13-14.64,13.62-15.16,10-.55,19.9-1.7,29-6.71,4.12-2.26,8.81-3.62,13.36-5a10,10,0,0,1,11.53,5.53c1.7,4-.17,8.69-4.75,11.2-2.72,1.5-5.63,2.67-8.46,4-3.86,1.78-7.87,3.37-10.46,7-7,10-3,27.43,7.88,33.18,10.55,5.56,21.1,4.13,31-1.53,12.29-7,19.1-18.8,25.24-30.91,5.88-11.58,5.73-23.51.7-35.34-2.52-5.92-5.65-11.58-8.52-17.34-7.24-14.53-19.8-18.66-34.53-17.89a176.27,176.27,0,0,0-43.92,8.37C570,35.34,559.05,34,549,26.64a56.5,56.5,0,0,0-18.41-9.3c-10.41-2.87-20.57-6.51-30.86-9.71-11.36-3.52-22.25-2.12-30.87,7.16C465,19,463.83,24.48,462.61,30c-4.15,18.78,13,31.06,28.63,28.77,7.27-1.06,14.18-4.18,21.76-3.71,8,.49,12.72,6,10.9,13.55-1.22,5.08-5,8.06-9.94,9.42-7.5,2.09-15.29,2.17-23,3A24.12,24.12,0,0,1,471.76,75c-2.74-2.4-5.5-4.78-8.43-7-7.8-5.79-16.35-6.48-22.87-1.63a41.91,41.91,0,0,0-7.13,7C424.58,83.9,424,96.72,435.25,106c2.3,1.89,4.4,4.1,6.92,5.64,6.52,4,9.86,9.91,11.58,17.07.54,2.28.43,4.59.76,6.88,1.85,12.79,3.08,25.61-1.85,38.1a104.68,104.68,0,0,0-7.52,34.95c-.41,12.1-.87,24.28.87,36.35,1.16,8.08,4.17,15.59,10.44,20.77A214.32,214.32,0,0,0,493,290c13.51,7.11,28,12.16,40.56,21.34,13.69,10,21.54,22,20.58,39.66-.92,16.91-.21,33.89-1.06,50.85-.66,13,5.55,20.84,17.92,25.26,10.58,3.78,21.74,4.68,32.64,6.78,5.49,1.06,10.88,2.33,16.24,3.88,4.32,1.25,9.35-1.88,10-5.82.52-3.14-2.62-7.6-6.19-7.81-3.17-.19-6.25-.75-9.36-1.18a352.29,352.29,0,0,1-38.15-7.23c-7.18-1.81-10-6.5-10.3-13.84-.28-7.51,1.06-14.92,1-22.38-.11-14-.32-28-1.06-41.94-.36-6.7-2.24-13.25-6.58-18.78-8.6-11-19.46-19.32-31.63-25.72-18.69-9.84-38.23-18-55.37-30.81-7.12-5.32-12.55-11.14-13.9-20-.6-3.91-.2-8-.65-11.92a109.53,109.53,0,0,1,4.16-45.05c3.42-11.09,8.47-21.87,7.09-33.95-1-9-1.82-18.05-3.31-27a30.51,30.51,0,0,0-11.48-19.55c-3.11-2.43-6.52-4.49-9.68-6.87a12.46,12.46,0,0,1-3.6-14.31c2.35-5.12,7.21-7.79,12.57-6.46,4.15,1,7.19,4.07,10.06,7,6.73,6.9,14.94,10.41,24.38,9.74,10.32-.74,20.8-1.2,30.78-4,16.66-4.74,23-25.21,15.12-37-4.68-7-19.07-12.62-28-10.55-4.63,1.07-9.2,2.46-13.86,3.38-5.81,1.15-11.66.69-15.2-4.61-3.23-4.84-2.68-10.39.12-15.51,3.21-5.87,10.78-8.42,18.82-6.1,8.81,2.55,17.48,5.61,26.31,8.12a71.71,71.71,0,0,1,21.23,10.13c3.5,2.41,7,4.87,11.12,6.31,11.47,4,22.8,2.15,33.94-1.16,14.13-4.2,28.31-7.53,43.19-6.85A19.91,19.91,0,0,1,648,45.23a75.31,75.31,0,0,1,7.52,14.36c2.54,6.33,5.24,12.61,3.86,20-1.94,10.32-7.58,18.54-13.89,26.34-5.44,6.72-12.25,11.61-21.59,11.19a11.39,11.39,0,0,1-10.82-8.6c-1.05-4.52,1.17-8.58,6.24-11.12,4-2,8.21-3.45,11.95-5.76a19.41,19.41,0,0,0,9.56-18.9C640.25,65,637,58.39,629.37,55.05a27.85,27.85,0,0,0-23.52.45c-12,5.64-24.39,8.39-37.42,9.69-12,1.2-19.88,9.89-21.5,22.13-1.17,8.76,1.62,15.6,9.11,20.26,4.73,2.94,9.75,5.41,14.56,8.21a13.51,13.51,0,0,1,7.18,12.27c-.17,7-7.89,10.33-15.07,7-6.59-3-11.71-8.13-16.91-12.89-12.31-11.25-26.34-16.71-43-14-6.64,1.07-13,3-17.06,9.42-8,12.73-2.76,35.43,17.45,37.45,14.56,1.45,27.53,6.84,39.66,14.85,6.89,4.56,10.54,10.26,9.09,18.68-1.12,6.48-7.13,9.38-12.6,5.8a23.91,23.91,0,0,1-6.11-5.8c-6.48-8.88-14.64-15.35-25.64-17-12.77-1.92-22.81-.63-29.64,13.68-6.4,13.4-6.2,27.5-3.46,41.66,3,15.63,13.53,25.43,26.56,33.16,8.36,5,16.65,10.11,25.78,13.47,13.1,4.83,23.37,13.44,33.18,23,8.2,8,18,8.3,27.22,1.82s11.41-16.25,11.57-26.47c.13-9.15,2-17.62,6.47-25.53,2.5-4.44,5.3-8.7,7.83-13.13a51.25,51.25,0,0,0,7-22.3c.39-5.7,0-11.62,2-17.16a11.37,11.37,0,0,1,11.49-7.68c4.39.32,8.27,3.94,9.21,8.93.6,3.23.68,6.56,1.17,9.82.91,6.08,3.15,11.32,8.81,14.66,9,5.32,18.43,6.08,28,2.16,7-2.89,11.17-8.09,11.46-16.25.27-7.5-2.27-14.23-4.68-21-2.65-7.43-1.43-13.87,3.4-19.85s10-11.89,14.62-18.16c8.54-11.7,15.19-24.53,21.45-37.56,3.94-8.21,10-14,19.55-14.68,17.7-1.21,35.44-2,53.15-3.11C810.45,90.36,819,85.89,824.1,76c5-9.66,7.8-20.16,11.84-30.19,2.82-7,4.31-14.5,8.44-20.94,3.66-5.71,8.74-7.62,15.25-5.78,9.61,2.72,18.09,8.41,27.92,10.63,7.17,1.62,14.35,3.33,21.05,6.5,7.65,3.62,11.21,9.82,9.18,17.67-2.4,9.26-7.38,16.88-16.64,20.89-4.37,1.9-8.87,3.56-13.06,5.8C880.83,84.43,877,90.47,876.89,99c-.09,7.36,2.83,13.72,5.62,20.2,3.62,8.44,5.44,17,3.78,26.36-1.91,10.74-8.49,18.09-16.15,24.78-10.95,9.57-23.09,12.69-37.39,7.49-12.19-4.43-21.54-11.06-27.15-23.25-8.37-18.19-28.91-18-40.78-9.45-8.13,5.89-13.41,14.24-17.33,23.61-8.15,19.42,4.34,35,19.88,40,7.41,2.43,15.16.8,22.73,1.37,9.64.72,19.41,1.14,28.42,5.22,5.54,2.51,7.82,7.62,6.28,13.07-1.62,5.73-6.66,8.58-13,8-5.56-.55-10.31-3.32-15.46-4.94-11.38-3.59-21.85-3.1-30.08,6.86-3.94,4.77-5.74,10.48-7.52,16.4-4.39,14.62,10.66,31.41,26.69,29.67,5.88-.63,11-3.15,16.44-4.78,8-2.38,14.46.8,14.92,7.88.33,5-2,9.25-5.82,12.52-5.67,4.82-12.56,7.1-19.55,9-7.89,2.12-15.08.16-21.12-5.16-6.25-5.5-12.15-11.39-18.21-17.11A48,48,0,0,0,726,274c-11.65-1.86-23.34-3.52-35-5.63-9.31-1.69-18.77-3.8-28.45-1.36-8.59,2.17-14.29,7.62-15.55,15.82-1.47,9.58,2.24,16.9,10.51,21.44a45.44,45.44,0,0,0,13.9,4.75c15.45,2.81,31,5.36,45.71,11a84.59,84.59,0,0,1,19.69,10.24c12.59,9.09,10.31,22.39,2,32.24-6.07,7.19-13.63,6.44-19-1.33a48.89,48.89,0,0,1-4-7.92c-4.6-10.32-12-17.68-22.79-21.25-12.43-4.08-25.05-7.61-37.3-12.16-12.09-4.49-22.46-2.75-32.73,5-15.4,11.58-19,40.9-2.41,53.41A56.29,56.29,0,0,0,633.74,385c9.18,3.69,18.57,7,25.48,14.68,5.25,5.83,8.57,12.78,11.9,19.74,4.74,9.9,12.16,16.82,23,19.44,13.2,3.21,26.38,6.46,39.51,10,10.68,2.86,21,1.11,29.15-6.4,13.06-12.07,25.61-24.81,35.91-39.35,8.64-12.19,18.39-22.73,31.62-30a146.57,146.57,0,0,0,24.94-17.79c11.59-10,23.23-20,37.46-26.32a32.53,32.53,0,0,0,13.27-10.89c4.26-6,6-12.69,6-19.92,0-6.16.14-12.33,0-18.49-.43-18,7.51-27,22-32.35,15.37-5.71,28.29-14.22,35.79-29.34,4.9-9.88,9.4-19.95,14.33-29.8,7-13.91,9.64-28.58,9-44.06a91.19,91.19,0,0,1,.82-19.85c3.22-18.22,12.22-31.64,30.09-38.2v20c-1.15-.32-1.82.43-2.6,1.08-10,8.39-11.41,19.54-10,31.52,1.07,9.26,3.68,18.45.94,27.85a175.82,175.82,0,0,1-17.58,40.52c-3.49,5.9-6.94,11.87-7.75,18.94-1.58,13.62,9.33,23.1,19.12,26.9a31.51,31.51,0,0,0,17.89,1.16v18c-4.33,0-8.67-.19-13,0-7.87.43-14.2-2.62-19.2-8.4a58.24,58.24,0,0,0-9.18-8.39C973,248,958,249.05,954.85,264.76a40,40,0,0,0,.66,19.49c2.92,10,8.89,19.12,8.92,30.07,0,9.52-.3,18.9-6.35,26.88-4.18,5.51-10,9.19-15.81,12.69-20.55,12.41-42.54,22.56-60.4,39.15-10.22,9.48-21,18.5-27.9,30.86-5.71,10.17-11.69,19.94-22.86,25.06a76.72,76.72,0,0,0-13.91,8.31c-11.27,8.42-19.84,19.5-29.24,29.79-7.33,8-13.32,16.71-15.7,27.47-1,4.5-1.58,9.07-4.07,13.1-3.26,5.27-8.62,6.79-14.09,4.06-4.28-2.13-5.86-6.23-7.17-10.23-4.42-13.48-13.8-21.91-26.49-27.35-18.91-8.1-37.7-11.26-55.66,2-11.32,8.34-23.85,11.33-37.63,10.94-12.27-.34-24.45,1.43-36.51,3.21-11.57,1.72-22.66,1.47-33.28-3.54-12.16-5.75-25.16-7.2-38.28-8.18-5-.37-9.13,3.14-9.08,7.09s3.25,6.73,8.93,6.29c12.54-1,24.23,2,35.4,7.22a55.43,55.43,0,0,0,32.39,4.49c14.38-2.27,28.83-4.56,43.28-4.34,15.61.23,29.29-3.46,41.72-12.73,9-6.72,19.25-8.28,30.06-5.53,15.3,3.9,29.08,9.82,34.22,26.81a32.44,32.44,0,0,0,3.17,6.62,21.58,21.58,0,0,0,18.94,11.47c11.56.4,20.29-6.27,23.79-18.34,3.15-10.89,5.58-22,13.9-30.54,2.43-2.49,4.78-5.08,7-7.78,9.77-12.08,20.57-22.91,34.93-29.59a46.85,46.85,0,0,0,22.77-21.84c9.67-19.49,25.8-32.87,42.45-45.75,12.41-9.61,26.77-16.09,40.15-24.14,9-5.43,18.78-10.27,25-19.13,12.09-17.3,11.26-36.09,4.73-55.09-2.48-7.22-7.3-13.68-6.84-21.84.36-6.35,5.32-8.95,10.75-5.53A19.64,19.64,0,0,1,981.8,271c6.25,8,13.77,13.32,24.69,13.31,5.82,0,11.63-.53,17.45-.23v16c-1.31-.12-2.64-.15-3.93-.37-8.07-1.35-15.49-.16-21.24,6.11-6.25,6.82-6.51,15.22-5.36,23.75,1.59,11.73,2,23-9.28,30.81-16.45,11.46-32.81,23.13-50.64,32.35A150.19,150.19,0,0,0,882,436.73c-11.28,15-9.13,29.86,7.4,40.27,9.34,5.89,19.39,10.34,29.37,14.95,7.93,3.66,16.14,6.65,24.92,7,16.52.57,29.62-7.44,41.52-17.74,8.42-7.28,16.21-15.28,24.74-22.43,4.32-3.62,8.17-8.22,14-9.75v18c-4.64,4.5-9.87,8.55-13.83,13.59-12.64,16.09-29,26.74-47.71,34.24-10.38,4.15-20.68,5.1-31,0-3.54-1.72-7.14-3.34-10.78-4.82-18.06-7.34-36.38-13.74-51.66-26.88-10.79-9.3-22.73-8.48-34.52-.14-9.06,6.4-15.65,15.21-22.37,23.83-8.15,10.44-12.39,22.72-16,35.22-2.95,10.24-8.36,18.15-19.55,19.75A194.94,194.94,0,0,1,747.29,564c-11.52-.11-17-4-21.38-14.77-3.72-9.26-6.94-18.71-14.82-25.77-11.85-10.63-31.73-7.77-37.9,6-3.14,7.06-1.11,14,2.45,20.28A158,158,0,0,0,686,565.4c8.38,11.45,10.9,23.28,3.94,36.45a314.26,314.26,0,0,1-25.1,40.72c-6.24,8.41-13.67,14.28-24.88,14.88-8.28.44-16.45-1-24.84.22-10.09,1.43-17.94,5.85-24.76,12.86-7.62,7.82-9.3,18-10.22,28.13-1.5,16.42-8.16,31-14.89,45.63-2.86,6.2-8.85,8.64-15,6.09A87.58,87.58,0,0,1,519.13,729c-3.43-3.7-5.3-8.24-7.19-12.82-2.32-5.65-7.1-7.71-11.26-5.15-3.22,2-3.95,7.24-1.42,11.57,10.88,18.66,26.69,31.66,46.61,39.58,12.47,5,23.73,1.07,29.59-10.33,9-17.45,15.77-35.61,17.64-55.46,1.5-15.9,10.31-26.37,29.07-26.4q9.5,0,19,0c11.26,0,20.28-4.62,27.67-13,12.72-14.44,22-31.07,31.4-47.72,9.76-17.31,8.41-33.43-2.82-49.34-4-5.63-8.73-10.73-11.53-17.17-3.27-7.51,1.91-13.31,8.27-12.91,8.91.55,12.43,6.65,15.68,13.2,2.4,4.84,3.91,10.12,6.2,15,4.16,8.91,10.41,15.87,20.5,17.72s20.51.34,30.75-.23a89.35,89.35,0,0,0,14.67-2c14.76-3.32,22.32-13.92,25.9-27.58,4.87-18.57,14.53-34.09,27.88-47.64,10.48-10.64,19.26-11.13,30.62-1.46a81.6,81.6,0,0,0,22.54,14c13.55,5.42,27.31,10.29,40.4,16.83,7.48,3.74,15.92,5.16,23.66,3,23.09-6.41,44.43-16.31,60.36-35.28a65.73,65.73,0,0,1,10.62-10.4v25c-7.09,9.62-15.89,17.2-26.93,21.92-8.15,3.49-16.31,7-24.66,10-13.81,4.91-23.36,13.57-27.44,28-3.58,12.66-10.08,23.84-18.37,34.08a43.28,43.28,0,0,0-9.84,29.31c.21,9.55,2.2,19,.45,28.76-2,11.38-6.16,21.42-13.83,30s-17.54,15-27.41,21c-10.82,6.58-18.95,15.2-22.54,27.63a48.42,48.42,0,0,1-3,8.33c-8.86,17.66-8.49,36.11-5.65,55.06,1.5,10-.52,19.53-9,26.41a108.93,108.93,0,0,1-38.51,20.46c-11.68,3.36-19.82,10.89-24.55,22a102.86,102.86,0,0,1-15.38,25.83c-6.68,8-14,15.41-25.12,16-12,.65-21.85-4.19-29.21-13.81-4.7-6.15-8.46-12.95-13.31-19-11.55-14.47-29.35-17.58-44.84-24.81-3.92-1.83-8.46,1-9.42,5-1,4.23,1.31,6.94,5,8.48a37.51,37.51,0,0,0,5.21,1.33c10.4,2.66,20.33,6.25,29,12.94,7.3,5.63,11.63,13.52,16.4,21,9.17,14.32,22.66,21,38.9,21.87,11.56.66,21.4-4.64,29.51-12.76,9.65-9.66,17.71-20.52,22.91-33.23,4.08-10,10.89-16.77,21.35-19.74,12.17-3.47,22.94-9.64,33.3-16.78,13.79-9.51,22.14-21.54,20.07-39.14-.88-7.55-1.49-15.13-2-22.72-.86-12.79,5.21-23.87,9-35.54,3.43-10.68,9.66-18.95,19.36-24.75a154.77,154.77,0,0,0,24.55-17.53c20.3-18.26,24.41-42,21.74-67.5-1-9.44.69-17.73,6.11-25.2,7.84-10.81,15.6-21.71,19.34-34.66,4-13.77,12.64-21.89,26.15-26.45,11.3-3.81,22.46-8.32,32.78-14.62,3.52-2.15,6-5.71,10-7.09v24a194.65,194.65,0,0,0-30.44,11.17c-10.2,4.65-18.37,11.73-23.76,21.65-5.73,10.55-11.87,20.92-16.24,32.15a75.7,75.7,0,0,0-3.66,13.21c-2.18,11.19-.08,22.49-1.73,33.74-2.58,17.6-9.38,33-21,46.33-6.63,7.57-15.52,12.31-23.87,17.61-14.09,9-24.26,20.75-28.59,37.13-1.56,5.9-3,11.82-2.66,18,.62,9.65-.81,19.14-1.93,28.67-.5,4.24,1.81,6.94,6.2,7.21s6.57-2.56,7.64-6.35c.35-1.24,0-2.66.09-4,.51-10.44-.61-20.87.85-31.35,2.14-15.44,8.81-27.7,21.83-36.59,9-6.11,18.72-11.13,26.68-18.6,10.82-10.16,17.41-23,22.64-36.7,5.5-14.34,5.71-29.37,6-44.41.06-3.13-.25-6.23.45-9.41,3.35-15.17,11.19-28.27,18.92-41.42a31.68,31.68,0,0,1,8.25-9.78c10.32-7.68,22.37-11.37,34.34-15.29v18c-18.09,4.82-30.6,16.11-37.94,33.16-5.53,12.87-6.59,26.51-6,40.29.5,11.06-.74,21.8-5.3,31.9-5,11.08-10.44,22-15.8,32.88a42,42,0,0,1-18.62,19.31c-5.83,3-11.89,5.58-17.74,8.55-9.29,4.72-16.23,11.65-19.94,21.6-3,7.9-3.55,16.11-3,24.36.46,6.52.64,13-1,19.27-2.52,9.4-10.35,13.73-18.35,17.48-6.16,2.89-12,6.06-17.21,10.53-13.39,11.56-26.71,23.16-42.38,31.74-8.44,4.63-16.62,10.2-22.17,18.1C787.2,910.2,774.35,924.86,760.86,939c-7.15,7.52-15.15,12-26,8.9-8.81-2.51-17.65-5.29-26.67-6.55-14.64-2.06-23.95-9.5-29.78-23.07s-16-23.22-29.94-28.62c-4.59-1.77-9.19-3.54-13.67-5.57-11.71-5.32-15.66-15.33-11.15-27.83,4-11.2,14.72-16.84,26.23-13.41,11,3.27,21.74,7.37,32.79,10.41s18.94,9.51,23.3,20.22a35.16,35.16,0,0,0,10.47,14.24,19.59,19.59,0,0,0,16,4.44c8.42-1.26,14.16-6.08,18.43-12.82,6.65-10.49,10.57-21.68,5.06-33.92-3.28-7.28-9.33-12.36-15.95-16.52-18.17-11.43-38.71-15.65-59.48-19-5.66-.92-11.47-1.2-16.57-4.29-3.2-2-4.35-4.82-3.92-8.43.41-3.46,3-5,5.77-6.2,5.24-2.31,10.47-.46,15.59.37,11.34,1.85,22.59,4.19,34,5.61,10.69,1.33,20.85,3.75,29.2,11.64,5.2,4.91,10.22,10,15.48,14.86,7.81,7.21,16.48,11.73,27.69,10.56a61.34,61.34,0,0,0,29.58-11.21,26.7,26.7,0,0,0,10.05-12.66c4.18-11.54.93-28.47-13-31.65-6.82-1.55-13.39-.53-19.76,2.18-3.67,1.55-7.5,2.87-11.46,2.75-8-.24-13.29-6.91-12.12-14.91,1.34-9.08,9.57-16.24,16.89-14.34A143.67,143.67,0,0,1,802.36,759a31.8,31.8,0,0,0,18.52,1.38c11.06-2.56,15.82-12.66,17-23.4,1-9.31-4.51-17.14-14-21-9-3.68-18.35-6.05-28.23-6.09-7,0-13.94-.54-20.91-1-10.58-.66-18.77-10.11-16.55-19.83a36.09,36.09,0,0,1,14.29-21.92c5.83-4.19,12.51-4.08,18,0,2.72,2,4.2,5,5.63,8,4.8,10,11.71,17.86,22.38,21.88,5.51,2.07,10.92,4.43,16.51,6.25a35.77,35.77,0,0,0,20.47.79c13.82-3.64,24.61-12.16,33.38-22.82a46.37,46.37,0,0,0,10.38-37.85c-1.19-7.78-4.13-14.74-7-21.85-4.81-11.82-2.34-17.3,9.57-21.61,9-3.25,16.34-8.68,21.45-16.75,4.88-7.72,8.53-16.2,7.63-25.48-1.12-11.49-9.08-18-19.18-21.61-15.69-5.69-31.79-10.14-47.12-17-10.37-4.65-21.29-1.32-28.05,7A45.79,45.79,0,0,0,829,539.44c-4.37,12-8.88,24-13,36-3.31,9.73-10,14.86-20,15.43-14.92.84-29.87,1.15-44.77,2.13-9,.59-18.14,1.33-25.36,7.92-4.85,4.43-8.06,10-10.87,15.8-8.06,16.63-16.75,32.83-29.66,46.36-12.08,12.65-16,26.67-7.63,43.09,1.46,2.87,2.85,6.29,1.83,10-1.4,5.08-5.23,7.36-9.88,7.59s-9-1.39-11.79-5.82c-2.29-3.68-2.45-7.91-2.81-11.88-1.65-18.69-15.34-22.38-29.78-19.55a18.9,18.9,0,0,0-13.9,11.61,39.32,39.32,0,0,0-3.36,15.82c.08,9.47-1.77,18.34-6.88,26.37-9.43,14.82-16.55,30.21-15.47,48.54.28,4.6-1.87,10-7.35,11.83s-10-.54-13.72-4.62c-.56-.61-1.22-1.14-1.76-1.77A63,63,0,0,0,538.41,777c-11-4.48-21.2-10.41-31.57-16.1C484,748.35,481.43,722.51,488,704.7c1.59-4.32,4.28-7.58,9.14-8.88,8.21-2.21,19.05,1.94,25.1,10.16a67.44,67.44,0,0,0,9.87,10.52c6.42,5.67,17.15,6.18,23.38,1.34,10.33-8,12.52-27.29,4.33-37.62-6.47-8.17-15.91-12.11-24.53-17.16-8.94-5.24-19-6.87-29.12-8.19-7.11-.93-11.25-5.74-11.18-12.23.06-5.59,4-10,10.28-10.59,8.22-.81,16.11.46,23.31,5,8.86,5.53,16,13.28,24.78,18.91,6.64,4.27,13.76,6.63,21.5,4.53,14.1-3.83,19.32-19.07,12.08-33.22-4.09-8-11.31-11.65-18.78-15.21-3.65-1.73-7-3.69-8.18-7.95-2.11-8,4.11-14.64,13.6-15.17,10-.55,19.89-1.69,29-6.7,4.12-2.26,8.8-3.62,13.35-5a10,10,0,0,1,11.54,5.51c1.7,4-.17,8.71-4.74,11.21-2.73,1.5-5.63,2.68-8.46,4-3.87,1.79-7.88,3.37-10.46,7-7.06,10-3,27.42,7.86,33.18,10.56,5.58,21.1,4.13,31-1.53,12.3-7,19.11-18.79,25.25-30.89,5.88-11.59,5.74-23.52.71-35.35-2.52-5.92-5.65-11.57-8.52-17.34-7.25-14.53-19.8-18.66-34.53-17.9a175.91,175.91,0,0,0-43.93,8.38c-11.69,3.69-22.64,2.36-32.67-5a56.77,56.77,0,0,0-18.4-9.31c-10.42-2.87-20.57-6.51-30.87-9.7-11.35-3.53-22.24-2.12-30.87,7.15-3.93,4.22-5.05,9.69-6.27,15.21-4.16,18.78,13,31.06,28.61,28.78,7.28-1.06,14.18-4.18,21.76-3.72,8,.5,12.72,6,10.91,13.55-1.22,5.08-5,8.07-9.94,9.43-7.49,2.08-15.29,2.16-23,3a24.11,24.11,0,0,1-19.23-6.09c-2.74-2.4-5.51-4.78-8.43-7-7.8-5.79-16.36-6.48-22.87-1.64a42,42,0,0,0-7.14,7c-8.75,10.57-9.38,23.39,1.92,32.66,2.3,1.89,4.4,4.1,6.91,5.64,6.51,4,9.88,9.9,11.59,17.07.54,2.28.42,4.59.76,6.88,1.86,12.79,3.08,25.61-1.85,38.1a104.93,104.93,0,0,0-7.52,35c-.41,12.1-.87,24.28.87,36.35,1.16,8.08,4.16,15.59,10.43,20.77A214.12,214.12,0,0,0,493,801.88c13.51,7.12,28,12.19,40.57,21.33,13.93,10.12,21.57,22.34,20.58,40.17-.94,16.74-.22,33.56-1.06,50.35-.66,13,5.55,20.85,17.92,25.26,10.58,3.78,21.73,4.68,32.64,6.79,5.49,1.05,10.87,2.33,16.24,3.88,4.32,1.24,9.34-1.88,10-5.82.53-3.14-2.61-7.6-6.18-7.82-3.17-.19-6.26-.75-9.37-1.17a354.55,354.55,0,0,1-38.14-7.23c-7.18-1.81-10-6.5-10.31-13.84-.28-7.51,1.06-14.92,1-22.38-.11-14-.32-28-1.06-41.94-.36-6.7-2.24-13.25-6.58-18.78-8.59-11-19.46-19.32-31.62-25.72-18.7-9.85-38.23-18-55.37-30.81-7.13-5.32-12.55-11.14-13.91-20-.6-3.91-.2-8-.65-11.92a109.6,109.6,0,0,1,4.16-45.06c3.42-11.08,8.47-21.86,7.09-33.94-1-9-1.82-18.05-3.31-27a30.54,30.54,0,0,0-11.47-19.54c-3.12-2.43-6.53-4.49-9.69-6.87a12.47,12.47,0,0,1-3.61-14.31c2.36-5.13,7.21-7.8,12.58-6.46,4.14,1,7.19,4.07,10.06,7,6.73,6.9,14.93,10.42,24.38,9.74,10.31-.74,20.79-1.2,30.78-4,16.65-4.73,23-25.21,15.13-37-4.68-7-19.08-12.62-28-10.56-4.63,1.07-9.19,2.46-13.85,3.38-5.82,1.15-11.67.7-15.21-4.6-3.23-4.84-2.68-10.4.12-15.51,3.21-5.87,10.78-8.43,18.81-6.1,8.82,2.54,17.49,5.6,26.32,8.11a71.71,71.71,0,0,1,21.23,10.13c3.5,2.41,7,4.87,11.11,6.31,11.48,4,22.82,2.17,34-1.16C602.61,550.52,617,547.18,632,548a18.74,18.74,0,0,1,12.83,5.38c5.95,6,8.71,13.82,12,21.29,4,8.94,3.89,17.86-.63,26.62a71.29,71.29,0,0,1-4.5,8.19c-5.71,8.12-11.42,16.26-21.91,19-7.48,1.94-13.8-.58-16.09-6.73-2.22-6,0-10,7.8-13.57,3.27-1.51,6.77-2.51,9.8-4.56,6.72-4.56,10.14-11,9.51-19-.61-7.71-3.86-14.3-11.48-17.65a27.87,27.87,0,0,0-23.53.46c-12,5.63-24.39,8.38-37.42,9.68-12,1.21-19.88,9.89-21.5,22.13-1.17,8.76,1.62,15.61,9.11,20.27,4.73,2.94,9.74,5.41,14.56,8.2a13.51,13.51,0,0,1,7.18,12.27c-.17,7-7.89,10.34-15.07,7-6.59-3-11.7-8.14-16.91-12.89-12.31-11.25-26.33-16.71-43-14-6.64,1.07-13,3-17,9.43-8,12.72-2.77,35.42,17.43,37.44,14.57,1.46,27.54,6.84,39.67,14.86,6.88,4.55,10.54,10.25,9.09,18.67-1.12,6.48-7.13,9.39-12.6,5.8a24.07,24.07,0,0,1-6.11-5.8c-6.47-8.87-14.63-15.35-25.63-17-12.79-1.92-22.82-.63-29.65,13.67-6.4,13.4-6.2,27.5-3.47,41.66,3,15.63,13.54,25.43,26.57,33.16,8.35,5,16.65,10.11,25.77,13.47,13.11,4.83,23.38,13.45,33.19,23,8.2,8,18,8.31,27.22,1.83s11.41-16.26,11.57-26.47c.14-9.16,2-17.62,6.46-25.53,2.5-4.44,5.31-8.71,7.84-13.13a51.25,51.25,0,0,0,7-22.3c.39-5.71,0-11.62,2-17.17a11.39,11.39,0,0,1,11.49-7.68c4.38.33,8.27,3.94,9.2,8.93.61,3.23.69,6.56,1.18,9.82.91,6.08,3.15,11.32,8.81,14.67,9,5.32,18.43,6.07,28,2.15,7.05-2.89,11.18-8.08,11.47-16.24.27-7.5-2.27-14.23-4.68-21-2.65-7.44-1.43-13.87,3.4-19.85s10-11.89,14.62-18.17c8.54-11.7,15.19-24.52,21.45-37.56,3.94-8.2,10-14,19.55-14.68,17.7-1.21,35.43-2,53.14-3.1,10.7-.7,19.22-5.17,24.35-15.08,5-9.66,7.8-20.17,11.85-30.19,2.82-7,4.31-14.5,8.44-20.94,3.66-5.72,8.74-7.63,15.25-5.79,9.61,2.73,18.09,8.42,27.92,10.64,7.17,1.61,14.35,3.33,21.05,6.49,7.64,3.62,11.21,9.84,9.18,17.67-2.4,9.26-7.38,16.88-16.64,20.9-4.37,1.89-8.87,3.55-13.06,5.79-7.25,3.88-11.09,9.92-11.19,18.41-.09,7.36,2.83,13.72,5.62,20.2,3.62,8.45,5.44,17,3.78,26.36-1.91,10.74-8.49,18.09-16.14,24.78-11,9.58-23.1,12.7-37.4,7.5-12.19-4.43-21.54-11.06-27.15-23.25-8.36-18.19-28.9-18-40.77-9.46-8.14,5.89-13.42,14.25-17.34,23.61-8.15,19.43,4.34,35,19.88,40.05,7.41,2.43,15.16.8,22.73,1.36,9.64.73,19.41,1.14,28.42,5.23,5.54,2.51,7.82,7.61,6.28,13.06-1.62,5.73-6.66,8.58-13,8-5.57-.54-10.31-3.33-15.47-4.93-7.21-2.25-14.47-3.33-21.58.11-9.08,4.38-13,12.59-15.8,21.68-5.2,17.24,11.46,33.4,27.47,31,5.49-.81,10.28-3.19,15.43-4.68,8-2.31,14.47.81,14.93,7.89.33,5-2,9.25-5.82,12.53-5.67,4.82-12.56,7.09-19.55,9-7.89,2.13-15.08.16-21.12-5.15-6.24-5.5-12.15-11.39-18.2-17.11A48.08,48.08,0,0,0,726,785.85c-11.65-1.87-23.34-3.52-35-5.64-9.31-1.69-18.77-3.79-28.45-1.35C654,781,648.28,786.47,647,794.68c-1.47,9.58,2.24,16.9,10.51,21.44a45.35,45.35,0,0,0,13.9,4.75c15.45,2.81,31,5.36,45.71,11a84.62,84.62,0,0,1,19.69,10.25c12.59,9.09,10.31,22.38,2,32.24-6.07,7.18-13.63,6.43-19-1.34a48.49,48.49,0,0,1-4-7.92c-4.6-10.31-12-17.68-22.79-21.24-12.43-4.09-25.05-7.62-37.3-12.17-12.09-4.49-22.46-2.74-32.73,5-15.4,11.57-19,40.89-2.41,53.4a55.54,55.54,0,0,0,13.07,6.82c9.18,3.7,18.57,7,25.48,14.69,5.25,5.83,8.57,12.77,11.9,19.74,4.74,9.9,12.15,16.82,22.94,19.44,13.21,3.2,26.39,6.45,39.52,10,10.68,2.87,21,1.12,29.15-6.4,13.06-12.06,25.61-24.81,35.91-39.35,8.64-12.19,18.39-22.72,31.62-30a146.63,146.63,0,0,0,24.94-17.8c11.59-10,23.23-20,37.46-26.32A32.51,32.51,0,0,0,905.93,830c4.26-6,6-12.7,6-19.92,0-6.17.14-12.33,0-18.49-.43-18,7.51-27,22-32.36,15.37-5.71,28.29-14.22,35.79-29.34,4.9-9.87,9.4-19.94,14.33-29.79,7-13.92,9.64-28.58,9-44.07a91.21,91.21,0,0,1,.82-19.85c3.22-18.21,12.22-31.63,30.09-38.2v20c-1.15-.32-1.82.43-2.6,1.08-10,8.38-11.41,19.53-10,31.51,1.07,9.27,3.68,18.46.94,27.86a176,176,0,0,1-17.58,40.52c-3.49,5.9-6.94,11.87-7.76,18.93-1.57,13.63,9.34,23.11,19.13,26.91a31.42,31.42,0,0,0,17.89,1.15v18c-4.33,0-8.67-.2-13,0-7.86.43-14.18-2.62-19.19-8.4a59,59,0,0,0-9.17-8.38c-9.58-7.27-24.6-6.27-27.74,9.41a39.67,39.67,0,0,0,.64,19.49c3,10.17,9,19.47,9,30.54,0,9.3-.39,18.56-6.35,26.39-4.19,5.5-10,9.2-15.79,12.7-20.53,12.43-42.51,22.57-60.38,39.13-10.22,9.47-21.31,18.32-27.85,30.85-6.67,12.76-15.7,22.41-28.9,28.38-5.36,2.43-10,6.28-14.41,10.31-7.65,7-14.26,14.86-21.16,22.49-7.17,7.93-14.09,16.16-16.69,27H742c-1.16-4-3.89-6.81-7-9.24-7.34-5.69-15.72-9.44-24.45-12.4-16.62-5.65-32.29-4.17-46.78,6.35-6.14,4.46-12.74,8.27-20.41,9.24-14.27,1.79-28.75.85-43,3.05-6.76,1-13.54,2-20.32,3h-3c-4.94-1.68-10.31-1.31-15.18-3.55a105.59,105.59,0,0,0-41.2-9.71c-4.18-.12-7.88.13-10,4.42s1.27,6.27,3.38,8.84H351c-1-3.93-1.91-7.89-3.06-11.78-2.71-9.16-5.51-18.25-13.09-24.92a14.07,14.07,0,0,0-18.81.12c-3.47,3.23-5.5,7.18-7.14,11.56-3.06,8.21-1.45,16.67-1.89,25H291a212.18,212.18,0,0,1,7.4-48.19c2.75-10.11,9.49-15.77,20.16-16.85,10.38-1,20.39-3.46,28.92-10q6.08-4.66,12.24-9.23c13.1-9.68,25.45-20,31.41-35.94a11.8,11.8,0,0,1,5.5-6.15c7-3.89,12.54-.53,17.67,3.35,18.93,14.34,40.07,20.74,63.71,18,13.47-1.57,25.6-8.77,29.09-24a59.45,59.45,0,0,0,.58-23.6c-1.1-6.4-3.43-12.64-5.69-18.77-1.82-5-6.16-7.28-9.67-5.93-4.76,1.82-6,6.38-2.63,11.93,5.19,8.51,6.75,17.7,6.31,27.46-.46,10.27-6.94,18.29-16.53,19.93-16.91,2.89-32.73-.38-47.7-8.52-6.38-3.47-11.69-8.53-18.33-11.62-12.77-6-23.69-3.22-31.24,8.59-5.39,8.42-8.77,18.19-16.88,24.74-4.88,3.94-9.83,7.79-14.71,11.72-10,8-20.42,14.24-33.87,15.38-15.78,1.35-26.54,10.48-30.45,26-4.27,16.92-7.45,34.09-7.29,51.68H258c7.42-13.09,7.76-27.72,8.88-42.1.42-5.44.36-11,1.7-16.24,5.35-20.79,20.91-39.21,47.68-40.83,17.74-1.08,31.45-10.51,41.79-24.93,6.87-9.56,10.63-20.74,16.43-30.85,7.17-12.48,18.8-15.87,31.08-8.62,10.48,6.18,21.13,12.11,30.95,19.41,6.08,4.52,12.69,8.25,20.57,8.73,7.64.47,15.59-1.79,18.91-9.46,3.93-9.07,1.78-17.74-1.7-26.25-4.59-11.23-14.8-15.18-25.16-18.81-5.55-1.93-11.48-2.8-16.6-5.92-4.76-2.89-7.22-7.63-6.11-11.79,1.8-6.83,6.65-11.17,12.57-11.28,6.36-.13,10.7,3.87,15,7.61,9.32,8,19.13,15.15,31,18.9,5.16,1.63,10.51,2.69,15.59,4.52,12.63,4.55,21.17,12.81,23.51,26.63,2.05,12.08,1,24.2.39,36.27a84.72,84.72,0,0,1-1.1,11.28c-1.66,9-7,14.4-15.08,17.36C495,932.38,481.94,938.18,467.13,938c-12-.15-22.89-3.92-33.93-7.57-11.72-3.87-23.63-6.47-34.71.79C386,939.46,373.9,948.44,362,957.55c-5.24,4-9.28,9.18-10.08,16.39-1.28,11.6,3.56,21.2,9.25,30.54,4.27,7,10.33,11.18,19,11.56a48.77,48.77,0,0,0,21.71-3.69c15.47-6.65,30.81-7,46.33-.38a46.36,46.36,0,0,0,16.73,3.88c14.54.47,27.47-4.34,39.47-12.1,15.92-10.3,32.65-12.75,50.67-6a100.71,100.71,0,0,0,24.21,6.17c11.48,1.26,22.93,0,34.39-.23a124.6,124.6,0,0,0,22.11-2.38c11.29-2.21,20.88-7.8,29.87-14.59,7.49-5.65,15.85-8.27,25.06-6.6a159.81,159.81,0,0,1,47.23,16.07c14.59,7.79,27.59,4.08,37.84-9.11,8.55-11,17.49-21.63,28.08-30.92,8-7,16.21-13.85,23.11-22,16-19,35.07-34.82,54.21-50.52,13.34-10.94,28.48-18.88,43.52-27.07,15.71-8.56,22.21-19,18.33-38.34-2.48-12.28-5-24.47-1.19-37a6.72,6.72,0,0,0-5.9-8.64c-3.88-.39-7.62,3.17-7.94,7.65-1,13.39-.8,26.63,2.71,39.81,3,11.44-.62,19.33-11.09,24.93-19.35,10.35-38.21,21.39-54.78,36-12.21,10.72-25,20.72-36.21,32.65-7.62,8.12-14.83,16.64-23.12,24.16C791.68,950.12,778,962.79,767.06,978c-6.76,9.37-15,11.68-25,6.28-13.41-7.23-27.74-11.55-42.39-15.23-15.26-3.84-29.22-2.5-41.82,7.94a55.43,55.43,0,0,1-25.06,12.17c-6.7,1.29-13.44,1.36-20.17,2-17.41,1.54-34.71,1.85-51.33-4.65-21.88-8.56-42.75-5.92-62.3,6.21-16.67,10.34-33.53,13.36-52.12,5.83-11-4.46-22.6-5.93-34.3-2.59-7.39,2.1-14.58,4.87-22,6.93-10.51,2.94-17.62-.32-22.51-10a37.82,37.82,0,0,1-3.15-8.8c-1.8-7.88.35-14.16,7-18.89,9.12-6.49,18.51-12.62,27.39-19.42,8.25-6.32,17-7.35,26.55-4.34,6.24,2,12.47,3.9,18.72,5.77,13,3.9,26.13,5.08,39.45,1.68a204.31,204.31,0,0,0,33.3-11.8c8.71-3.9,15.44-10.23,17.28-19.66a187,187,0,0,0,2.61-52.35c-1.85-20.82-13.83-33.13-32.18-40.46-6.2-2.48-12.79-4-19.08-6.27-10.44-3.82-18.59-11.19-27.1-18-5.16-4.13-10.58-7.78-17.51-8.43-13.07-1.23-22,8.25-25.74,17.29-5,11.9-1.92,21.53,8.85,28.56,6.42,4.19,13.75,6.08,21,8.2,10,2.93,18,7.92,20.3,19.11a9.42,9.42,0,0,1-2.47,8.7,7.55,7.55,0,0,1-8.78,1.57c-2.7-1.19-5.6-2.2-7.89-4-10.33-8-21.72-14.2-32.84-20.86-5.33-3.19-10.84-6.15-17.28-6.61-14.6-1-25.25,5.41-32.37,17.66-4.27,7.36-7.44,15.34-11.36,22.91-7.07,13.64-17.39,23.58-32.82,27-6.24,1.37-12.68,1.82-19,2.92-14.3,2.52-23.89,11.79-32.31,22.75-6,7.78-11.25,16-12.52,25.86-1.43,11.13-2.19,22.35-3.08,33.55s-3.85,21-14,27.31H196a28.27,28.27,0,0,1-11.33-17.3A206.37,206.37,0,0,0,169.27,961c-4.63-9.75-2.36-19.18,5.68-26.49,9.21-8.37,20.36-13.53,32.28-16.55,10.78-2.73,21.08-6.07,29.54-13.63a31.66,31.66,0,0,1,8.55-5.87,6.19,6.19,0,0,1,7.3,1.32c2.12,2,3,4.28,2,7.17a26.94,26.94,0,0,1-9.22,12.61c-14.15,10.78-20,25.67-21.38,42.81-.66,8,2.56,15.64,2.07,23.65-.35,5.81-2.69,9.58-7.43,10.16-5,.62-7.87-2.19-9.7-6.61-2.9-7-3.83-14.49-5.36-21.81-1.89-9-.63-17.17,7.23-23.2.92-.7,1.95-1.25,2.86-2,4-3.13,5.13-9.11,2.34-12.11-2.55-2.73-8.05-2.28-11.42,1.39a104.39,104.39,0,0,0-10.33,12.7A23.86,23.86,0,0,0,190,959.53a112.51,112.51,0,0,0,8.67,37.2c4.33,10.14,11.32,13,19.77,12.94,9.23,0,15.53-5.87,18.61-15.67,2.08-6.64,1.25-13.52.63-20.21-.75-7.95-1.19-15.69,1.19-23.48a37.43,37.43,0,0,1,10.34-17.17c7.54-7,14.88-14.06,17.66-24.55.79-3,3.34-4.81,6.09-6.17a83.49,83.49,0,0,1,31.53-8.66c7-.5,14-2.13,20.12-6,8.82-5.6,13.9-14.06,17.31-23.51,5.66-15.69,14.16-28.61,30.88-34.18,11.7-3.89,20.42-11.11,25.58-22.45,4.59-10.06,11.4-18.56,19-26.48,7.15-7.48,11.15-16.23,10.63-26.63-1.35-27.14,3.38-53.6,8.3-80.09,2.33-12.54.59-24.57-6.73-35.45-6-8.88-14.29-15.7-21-23.91-11.55-14-8.21-27.13,8.8-33a22.44,22.44,0,0,0,7-3.5c2.37-1.93,3.51-4.51,2.34-7.54s-3.25-4.32-6.6-4.09a13.58,13.58,0,0,0-6.12,1.69c-3.27,1.91-6.53,3.83-9.77,5.8-15.55,9.47-19.55,23.47-11.08,39.72,4.81,9.21,12.13,16.48,19.35,23.8,5.76,5.84,10.65,12.5,11.46,20.87.92,9.4-.29,18.75-2.3,28-3.15,14.5-5.65,29.11-5.57,44,0,6.83.23,13.68-.05,20.49-.32,7.5-2.08,14.54-7.23,20.5-7.31,8.45-15.07,16.57-19.81,27-4.44,9.75-11.54,16.56-21.88,20.19-16,5.63-27.09,16.61-33.27,32.51-1.73,4.43-3.71,8.78-5.77,13.07-3.91,8.12-9.55,13.92-19.07,15.52-5.52.93-11.06,1.5-16.59,2.27-8.44,1.17-15.95,4.78-23.46,8.51-5.61,2.8-11.36,1.32-12.58-3.2-2-7.54,4-23.07,12.61-24.93,6.64-1.43,13.22-.48,19.81-.82,8.52-.44,16-3.07,22.11-9.29,5.11-5.19,8-11.72,11.09-18.09a62.05,62.05,0,0,1,28.5-29.26c18.58-9.34,30.61-24.7,40.52-42.15,8.2-14.45,7.46-30.76,9-46.54.72-7.38,1.77-14.7,2.7-22,1.46-11.49,3-23-.63-34.37-2.84-8.83-8.81-15.74-14.23-23a165.38,165.38,0,0,1-15.15-23.7c-7.9-15.54-2.1-29.37,5.4-42.93a12.83,12.83,0,0,1,4.32-4.71c12.92-8.34,27.1-11.58,42.29-10.47a39.72,39.72,0,0,0,11.74-1c11-2.43,15-17.59,11.76-28.51-2.73-9.28-15.63-15.7-26.31-13.71-13.52,2.52-26.78,6.15-40.13,9.4-5.89,1.44-11.82,3.63-18,2.14-9.44-2.28-12.49-10-14.58-18.22-2.15-8.44-4.19-16.85-9-24.3-7.35-11.29-19-13-26.87-2.72A29.65,29.65,0,0,0,308,489.92c-2,8.87-1,17.88-.88,26.8.2,14.85,5.89,26.94,19.57,34.25a22.84,22.84,0,0,1,6.66,5.93,10.8,10.8,0,0,1,.4,13.76c-2.87,3.83-7.67,4.84-12.89,2.65a34.65,34.65,0,0,1-8.31-5.31c-7.72-6.23-16.4-10.29-26.41-8.84-11.39,1.64-22.25,5.49-32.72,10.32-9.54,4.4-16.25,11.13-17.65,22.09-.8,6.19-1.83,12.35-2.51,18.55-1.33,12-8.24,20.9-16.17,29.28-7.76,8.21-10.74,17.69-8.32,29.05,1.43,6.7,3.9,13.17,4.3,20.14.78,13.7-4.65,25.69-9.84,37.81-2.6,6.08-7,10.26-12.68,13.31-9,4.84-18.2,9.28-26.59,15.15-10.78,7.55-21,15.65-24.56,29.24-2.23,8.38-2.34,16.95-2.44,25.57-.21,20,3.92,18.53-17.92,27.28-15.82,6.33-26.71,16.82-31.12,33.73a53.05,53.05,0,0,1-19.26,28.77A87,87,0,0,0,55,913.14C40.64,930.71,21.66,940.52,0,945.86v-16a236.07,236.07,0,0,1,37.41-16.1c4.73-1.52,6.77-5.91,5.22-9.75-1.31-3.21-6-4.76-10-3C21.75,905.9,10.91,910.92,0,915.87v-21C12.52,890,25.6,889.1,38.83,888.8c7.08-.16,14.17-.86,20.21-5.39,9.85-7.39,12.88-18.2,15-29.5,1.35-7.23,2-14.69,8.33-19.93,3.83-3.16,8.37-4.58,12.87-6,12.71-4,22-11.33,24.32-25A107.42,107.42,0,0,0,121,780.11c-.5-10,3.8-17.55,12-23,13.48-8.9,27.14-17.54,40.42-26.71,17.14-11.82,23.14-28.35,19.6-48.7-1.67-9.6-7.11-17.13-12.57-24.75-9.52-13.31-5.33-24.48,10.49-28,9.53-2.15,18.39-5.17,23.62-14.47,5.07-9,5.46-25.1-3.14-31.53-6.91-5.17-14.86-5.72-23-5.39-12.23.5-19.66-2.9-23.52-13-1.84-4.83-1.75-9.71,1.85-13.48s8.2-3.93,12.83-1.74a73.24,73.24,0,0,1,6.93,3.72c15.48,9.52,31.66,14,49.1,5.82,11.73-5.52,23.88-9.8,36.08-14.09,13.6-4.77,18.78-12.44,19.15-27.79a236.29,236.29,0,0,1,7.21-52.25c2.78-11,9.33-16.42,20.48-17.76,10.87-1.32,21.33-3.73,30.05-11,3.54-2.95,7.4-5.52,11.11-8.25,13.12-9.67,25.46-20,31.42-35.95a11.81,11.81,0,0,1,5.51-6.15c7-3.86,12.53-.51,17.66,3.37,18.8,14.21,39.73,20.6,63.23,18,13.67-1.49,26.21-8.83,29.54-24.07a57.79,57.79,0,0,0-.58-28.36c-1.6-5.63-2.27-11.73-5.92-16.56-2.21-2.93-5.09-5.19-9.23-2.94s-3.86,5.67-2.75,9.36a10.54,10.54,0,0,0,1.28,2.69c5.45,8.41,7,17.81,6,27.48-1.07,10.29-4.94,17-17.45,19.44-13.42,2.59-26.15,0-38.72-4.67-8.35-3.08-15-8.9-22.41-13.48-7.14-4.4-14.75-6.55-23-3.79-7,2.35-11.16,7.85-14.35,14.23-4,8-8.29,15.81-15.37,21.6-4.6,3.76-9.36,7.31-14,11-10,8-20.46,14.18-33.9,15.34-15.79,1.35-26.5,10.54-30.4,26.09a232.27,232.27,0,0,0-7.39,51.2c-.31,12.92-2.17,19.23-17.12,23.45a162.41,162.41,0,0,0-27,10.56c-12.33,6-24.56,6.21-36.81-.56-5.45-3-10.7-6.4-16.7-8.42-9.34-3.12-19.73,0-25.21,7.12-12.57,16.29,1.31,39.08,14.67,44.33,7.46,2.93,15,1.5,22.53,1.84,3.24.15,6.26.57,8.82,2.64,7.15,5.8,4.17,17.34-5.51,21.47a56.2,56.2,0,0,1-11.41,3c-20.56,4-27.14,26.65-19,41.14a89.56,89.56,0,0,0,7.57,10.94c12.42,15.95,10.1,39.86-7.51,51.26Q146.49,733.08,127,746.06c-9.86,6.54-16.94,14.7-18.25,27.33-.71,6.83-.36,13.58-.65,20.36-.42,9.88-3.93,17.59-13.9,21.14-3.39,1.2-6.74,2.53-10.12,3.75-10.88,3.9-18.09,11-20.19,22.74-.83,4.67-1.93,9.29-2.82,13.94-2.85,14.87-9.8,21.25-24.2,21.51a183.27,183.27,0,0,0-36.79,4v-51c2.14,4.54.75,9.34.94,14,.38,9.64,5.21,16.53,14,18.52,3,.69,6.27.44,9.41.45,9.17,0,16.29-5,19.84-13.5,3.43-8.24,2-16.53.29-24.75-2-9.49,3-17.18,12.61-18.71,4.37-.7,8.81-1.12,13.13-2.06C83.48,801,91.7,792.37,90.26,777c-.61-6.57-3.92-12.07-5.43-18.22-2.46-10-.62-16.94,10.24-18.94,3.53-.64,7-1.68,10.47-2.55,13-3.23,23-12,34.14-18.54,6.94-4.08,14.13-7.94,18.85-14.84,5.67-8.29,5.94-16.77.68-25.43-4.43-7.29-11-10.55-19.24-9.43-9.12,1.24-16.14,6.79-23,12.45s-13,12.17-21.49,15.63c-5.47,2.25-11.07,1.49-13.51-2-3.2-4.59-2.34-9.18,2.51-14.13a23.5,23.5,0,0,1,5.57-4.1c9.66-5.32,19.29-10.71,29-16,11.81-6.46,22.82-13.29,28.62-26.69,7.26-16.78,8.41-32.48-2.76-48A115.36,115.36,0,0,1,133.53,566c-3.67-8.13-3.25-16,1.72-23.42a51.26,51.26,0,0,1,8.07-9.43c10.51-9.54,16.12-20.76,13.87-35.57-1.44-9.53-3.63-18.65-8.42-27-4.91-8.52-12.45-13.56-22.44-12.44s-18.37,5.88-25.65,12.67c-14.56,13.58-24.42,30.73-35.39,47-6.53,9.69-13.66,19-18.58,29.79-5.3,11.55-3.58,22,5.35,30.83a116.1,116.1,0,0,0,8.8,8.06c3.44,2.77,6.89,5.79,9,9.91,2.51,5,1.41,10.74-2.65,13.85s-10.53,2.39-14.53-1.2c-4.3-3.86-6.36-9.22-9.58-13.79C35.8,585,26.87,578.73,13.44,580.83,8.85,581.55,4.59,583.3,0,584V567c14.75-4.05,25.12-13.19,31.53-27a51,51,0,0,1,3.74-6.9c9.52-14.22,19.41-28.21,28.62-42.63,13.43-21,30.22-37.9,54-46.9,12.19-4.61,20.13-13.29,24.18-25.67,1-2.95,2.57-5.68,3.65-8.61,3.36-9.11,9.95-14.92,19.16-16.93,14.23-3.11,27.39-9,40.79-14.29,8.67-3.44,16.87-7.56,22.39-15.6,8.07-11.75,12.38-30-3.16-42a49,49,0,0,0-11-6.5c-8.31-3.48-16.82-6.55-24.89-10.53-10.76-5.31-13.11-16.52-5.24-25.47,8.8-10,26.6-18.62,43.33-8.27,5.73,3.54,11.69,6.75,17.73,9.74,15,7.45,30.58,3.37,40.82-9.92,9-11.69,18.49-23,30.81-31.52,16.66-11.5,23.4-28,23.44-47.59,0-14.34-4.37-27.84-9.31-41.15-3.15-8.49-6.15-17.07-13.26-23.28-9.77-8.56-25.05-8.32-32.15,3.39-7.64,12.62-6.92,25.26-.45,38,1.86,3.66,4.05,7.16,5.82,10.87,3.91,8.18,3.06,15.74-2.81,22.92-3.92,4.78-9.09,8.18-12.9,13.15-4.22,5.51-7.5,11.65-11.95,17-3.91,4.69-10.6,6.33-15.06,3.72s-5.57-8.35-2.8-14.62c1.74-4,4.43-7.33,6.94-10.81,8.17-11.29,11.9-23.49,9.22-37.64-1.65-8.72-2.55-17.78-.07-26.56a112.41,112.41,0,0,1,5.95-15.57c3.8-8.44,5.51-17.52,8.51-26.19,2.76-8,8.14-10.58,16.22-8.55,8.79,2.21,16.74,6.67,25.34,9.42,8.41,2.68,14.46,8.4,18.65,16.11,4.62,8.52,8.84,17.28,13.87,25.56,6.82,11.24,10.23,23.1,9.38,36.29-.63,9.73-1.8,19.37-3,29-2,16.35-8.2,30-22.76,38.9-17.9,11-32.28,25.52-44.27,42.73-11.24,16.14-26.7,18.78-42.93,7.39-11-7.73-22.49-14.13-35.43-17.92-3.37-1-6.69-1.91-10.2-1.47-3.33.42-5.43,2.12-5.5,5.79-.1,5,2.91,7.92,9.12,8.12a40.63,40.63,0,0,1,12.47,2.7c8.79,3.17,16.09,8.77,23.63,14C260.74,325.94,284,322,298.28,301.64c10.93-15.56,23.37-29.5,40-39.25s26.13-24.28,29.46-42.86c1.82-10.21,2.47-20.62,3.58-30.94,1.22-11.36,1.24-22.42-3.19-33-6.92-16.54-16.28-31.83-25.37-47.22A30.53,30.53,0,0,0,328,95.53c-10.9-4.53-21.83-9-33-12.93a23.55,23.55,0,0,0-18.2,1c-7.68,3.56-11.62,10-13.72,17.71-2.89,10.59-6,21.07-10.78,31-6.25,13.07-6.3,26.75-3.94,40.61,1.55,9.12.63,17.69-4.37,25.65-3.85,6.12-8.48,11.78-11,18.65-2.93,7.89-4.09,16,1.77,22.91,6.41,7.53,14.74,10.66,24.83,8.05,8.28-2.15,12.82-8.57,17.24-14.88,5.05-7.2,10.24-14.12,16.84-20.05,7.76-7,12.88-15.53,12.27-26.42-.4-7-3-13.39-6.57-19.4-3.09-5.23-5.78-10.62-7-16.63a17.15,17.15,0,0,1,3.41-14.45c4.63-5.91,13.66-3.95,17.56,4.56,7.81,17.06,14.53,34.61,13.6,53.87-.61,12.58-5.18,23.36-15.8,31.14A135,135,0,0,0,294.44,240a194.74,194.74,0,0,0-16.73,19.68c-8.12,10.81-18.28,13.24-30.43,7.11-3.09-1.55-6.07-3.32-9.08-5-7.85-4.49-15.62-9.81-25-9.59a51.4,51.4,0,0,0-40,19.62c-9.68,12-9.82,30.81,6.93,40.58,7.71,4.51,16.18,7.23,24.35,10.64,5.63,2.35,11.47,4.55,15.27,9.61,7.66,10.19.78,24-9.08,29.3a189.82,189.82,0,0,1-39.51,16.15c-7.24,2-14.91,2.73-21.46,6.83-9.3,5.84-14.42,14.81-17.63,24.91-3.75,11.8-11.27,19.65-22.79,24.15a99.35,99.35,0,0,0-46.06,36.37C47.39,493.15,30.49,515.27,17,539.65,13.28,546.47,7.78,551.18,0,553V529c7.71-7.55,13.39-16.77,20.33-25C29.87,492.8,39,481.27,45,467.67a30.1,30.1,0,0,1,5.56-8.74A242.53,242.53,0,0,1,93,423.2c12.71-8.29,22.83-18.24,28.23-32.65a150.82,150.82,0,0,1,6.46-13.83c4.66-9.39,12.44-13.39,22.77-13.81,8-.32,15.74,2,23.66,2.06,3.62,0,6.49-1.43,6.87-5.57s-1.37-6.46-5.55-7.44c-8-1.86-16.21-1.43-24.2-1.63-17.85-.42-29.29,7.33-37.08,25-4.9,11.13-8.52,23.3-18.92,30.72Q75.3,420.31,56.7,436.17c-9.35,8-18.82,15.74-23.6,27.55C25.86,481.58,11.54,494.25,0,509V484a89.42,89.42,0,0,1,17.14-15.76c3.44-2.34,5-6,3.43-10-1.38-3.64-4.86-3.67-8-3.13-2.32.39-4,2.18-5.47,4A33,33,0,0,1,0,466V448a87,87,0,0,1,16.09-6.12c9.93-2.63,18.79-7.44,27.15-13.47C57.54,418.12,68,403.8,81.59,392.86c10.48-8.42,15-20.57,19.26-32.77,2.55-7.33,6-14.17,13.06-18,8.81-4.75,17.91-9,26.89-13.43,3.15-1.56,6.18-.56,9,.75a133.1,133.1,0,0,0,14.6,5.79c10.63,3.42,21.13,7.19,29.74,14.71a10.22,10.22,0,0,0,5.86,2.42c2.56.26,5-.19,6.52-2.46s2-4.72.37-7.38a11.65,11.65,0,0,0-5.47-4.61c-14.41-6.4-28.51-13.52-43.72-18.07-6.72-2-8.55-5.48-8.77-12.57-.24-7.51.56-14.95,1-22.41.68-10.55,4.82-19.24,13.18-26a139,139,0,0,1,30.66-18.68,41.28,41.28,0,0,0,22.77-24.53c.9-2.46,1.75-4.95,2.77-7.37,6.69-16,9.13-32,3-48.91-3.19-8.78-1.86-17.32,5.23-24.69,4.3-4.47,8.46-9.24,11.5-14.86,5.21-9.63,7.1-20,7.91-30.73.49-6.36,1.34-13,6.78-16.87,9.94-7,21.59-10.22,33.48-12C295,59,301.18,63.24,307,67.64c6.35,4.76,13.38,8.3,21.35,8.08,9.82-.27,15.61-6.77,18.36-15.46,2.66-8.41,3-17-4.07-24-2.34-2.35-4.55-4.87-7.5-6.47C323.3,23.36,318.75,13.23,320,.11h18A32.64,32.64,0,0,0,342,10c6.53,11.86,19.16,16.54,28.48,14.76,10.27-2,20.32-5.07,30.53-7.34,9-2,17.73-5.2,27.15-4.36,4.76.42,7.57,3.1,8.7,7.49,1,3.85-1.72,8.2-5.74,9.93a15,15,0,0,1-7.33.72c-11.74-1-23,1.29-34,5-10.46,3.56-20.22,8.37-24.91,19.48-1.53,3.62-3.09,7.23-4.58,10.88-6.08,14.87-6.12,29.24,2.53,43.43,5.16,8.46,10,17.15,16.43,24.67,10.56,12.37,14.76,26.22,11.6,42.23a296.74,296.74,0,0,0-4.71,41.23c-1.5,27.06-15.12,46.38-36.76,61-7.35,5-15.39,8.83-22,14.92-9.11,8.36-15,18.89-20.23,29.78-4.42,9.15-11.22,13.84-21.54,13.2a91.58,91.58,0,0,0-11,0c-9.18.53-17.58,2.92-23.12,11-3.39,4.95-5.26,10.56-6.52,16.4-.87,4-1.24,8.48-5,11C230.15,382,221.2,390,209.35,393A133.19,133.19,0,0,0,173.09,408c-14.21,8.62-25.25,29.2-14.28,48.72a118.7,118.7,0,0,1,13.25,39c2.73,16.47,12.4,26.78,28.35,31.22a61.53,61.53,0,0,0,39.72-2.2c12-4.66,20.09-12.57,23-25.55,2.24-10,3.06-20.16,3.9-30.34.41-5.09.35-10.34,1.6-15.24,5.1-20.08,20.45-39,47.27-40.68,18.14-1.15,32-10.64,42.47-25.49,6.7-9.5,10.41-20.5,16.19-30.43,7.15-12.28,18.51-15.73,30.69-8.69,10.39,6,20.86,11.93,30.59,19,6.25,4.58,12.81,8.62,20.9,9.17,10.3.68,17.27-2.76,20.22-11.75,3.43-10.46-1.36-30.79-15.67-37.73-7.89-3.83-16.34-5.85-24.47-8.86-3.44-1.28-6.79-2.65-8.77-6a11.46,11.46,0,0,1,1.05-13.67c4.19-5.17,8.57-6.4,14.33-4.63a25.64,25.64,0,0,1,9.62,5.91c12.18,11,25.79,18.85,42.1,22.55,15.74,3.57,27.21,13,29.45,30,1.55,11.69,1,23.61-.18,35.36-.39,3.89-.27,7.83-1.24,11.78-1.66,6.81-5.19,11.9-11.42,14.57C496.5,420.45,481.22,427,464,426.06c-10.83-.58-20.82-4.2-30.91-7.54-11.71-3.88-23.63-6.39-34.71.92-12.38,8.16-24.34,17-36.12,26-5.22,4-9.43,9.1-10.29,16.29-1.41,11.77,3.49,21.53,9.32,31,4.32,7,10.42,11.1,19,11.43a49.55,49.55,0,0,0,21.7-3.76c15.65-6.72,31.13-6.83,46.79,0a43.73,43.73,0,0,0,15.79,3.6c14.91.55,28.05-4.53,40.37-12.46,15.28-9.83,31.57-12.28,48.9-6.14,8.18,2.9,16.4,5.61,25.09,6.61,11.64,1.34,23.26-.09,34.89-.15,7.22,0,14.48-1.19,21.63-2.39,11.31-1.9,21-7.59,29.93-14.42,7.63-5.8,16.08-8.52,25.48-6.77a170.47,170.47,0,0,1,47.67,16.33c14.68,7.59,26.85,3.7,37-9.17,8.64-10.94,17.47-21.65,28.05-30.95,8-7,16.25-13.83,23.13-22,14.51-17.26,31.62-31.76,48.74-46.27,15.17-12.87,32.36-22.53,49.77-32,18.34-9.93,20.59-21,18.28-35.74-2-13-5.73-25.64-1.7-38.93a6.73,6.73,0,0,0-5.64-8.82c-4-.58-7.84,2.73-8.19,7.25a139.93,139.93,0,0,0,2.44,39.86c2.28,11,2.08,18.21-10.59,25.05-19.3,10.44-38.21,21.34-54.79,35.92-12.21,10.73-25,20.7-36.26,32.59-7.52,8-14.59,16.42-22.74,23.84-14,12.74-27.95,25.58-39.11,41.09-6.73,9.35-14.93,11.41-25.09,6-13.42-7.19-27.77-11.48-42.41-15.19-15.31-3.89-29.27-2.28-41.79,8.16a55.67,55.67,0,0,1-25.54,12.27c-6.35,1.19-12.83,1.16-19.25,1.71-17.58,1.49-35,1.78-51.81-4.72-22.24-8.58-43.21-5.53-63.12,7-15.92,10-32.54,12.63-50.38,5.46-11.39-4.57-23.21-6.24-35.25-2.85-7.23,2-14.24,4.87-21.48,6.88-10.94,3.05-18-.39-23-10.65a38.7,38.7,0,0,1-2.91-8.36c-1.74-7.5.51-14,6.83-18.51,9.27-6.57,18.79-12.79,27.81-19.69,8.12-6.22,16.73-7.13,26.12-4.3,6.41,1.94,12.74,4.13,19.17,6,9.57,2.77,19.38,4.54,29.31,3.37,14.8-1.73,28.58-7.23,42.14-13,9.82-4.18,16.53-11.4,19-22.42,1.72-7.84,1.67-15.76,2.34-23.63,1.12-13,1.67-26.32-2.78-38.82-6.21-17.45-20.5-26.05-37.42-30.81-9.43-2.65-18.44-6-26.28-12-4.2-3.21-8.2-6.68-12.41-9.88-5.12-3.89-10.36-7.57-17.1-8.23-12.93-1.27-21.74,7.75-25.64,16.63-5.41,12.31-2.45,22.07,8.76,29.37,6.28,4.09,13.47,5.92,20.54,8,10,2.93,18.09,7.73,20.45,18.94A9.38,9.38,0,0,1,463,362a7.55,7.55,0,0,1-8.81,1.3c-2.52-1.18-5.29-2.07-7.45-3.73-10.34-7.93-21.71-14.21-32.83-20.88-5.2-3.12-10.56-6.12-16.76-6.67-14.72-1.32-25.44,5.1-33.05,17.39-4.51,7.28-7.23,15.44-11.25,23-7.22,13.52-17.26,23.71-32.79,27.05-6.24,1.34-12.68,1.79-19,2.94-14.23,2.59-23.88,11.73-32.41,22.65-7.92,10.12-13.12,21.21-13.69,34.17-.48,11.24-1,22.48-3.12,33.54-1.86,9.89-7.12,17-17.22,20.42a53.26,53.26,0,0,1-24.2,2.8C197,514.26,187.8,508.31,185,495.8a218,218,0,0,0-15.65-46.48c-4.73-9.92-2.4-19.48,5.85-26.87,9.13-8.19,20.14-13.29,31.89-16.3,10.77-2.75,21.11-6,29.57-13.55a35.9,35.9,0,0,1,7.61-5.52c2.91-1.5,5.68-1.68,8.25.77s3.08,4.74,1.75,8a28.06,28.06,0,0,1-9.17,12c-13.75,10.59-19.5,25.22-21.09,42-.77,8,2.39,15.66,2.06,23.65-.27,6.36-2.42,9.83-7.28,10.81-4.25.85-8.09-1.65-10.18-7.35-2.83-7.69-4.26-15.78-5.5-23.84s.79-15.15,7.59-20.32c1.06-.8,2.22-1.46,3.24-2.3,3.77-3.13,4.77-8.76,2.14-11.74s-8-2.51-11.39,1.16a104.52,104.52,0,0,0-10.36,12.67A24.1,24.1,0,0,0,190,447.52a121,121,0,0,0,8.55,37.26c3.2,8.24,12.26,13.69,19.76,13.19,9.14-.6,15.69-6,18.73-15.69,2.09-6.65,1.38-13.55.65-20.21-1-9.33-1.19-18.38,2.36-27.23a35.9,35.9,0,0,1,8.35-12.78c7.57-7.32,15.77-14.19,18.42-25.23.7-2.91,3.28-4.81,6-6.2a82.34,82.34,0,0,1,31.51-8.72c7-.52,14-2.11,20.14-6,8.85-5.56,14-14,17.38-23.46,5.71-15.87,14.3-28.81,31.27-34.41,11.31-3.74,19.92-10.79,24.95-21.79,4.67-10.21,11.46-18.91,19.17-26.95,7.16-7.46,11.22-16.19,10.7-26.6-1.35-27.14,3.38-53.6,8.27-80.1,2.35-12.72.58-24.83-6.92-35.85-5.85-8.6-13.87-15.2-20.4-23.17C398,90.27,398.83,75.77,417.65,70.06a18.07,18.07,0,0,0,6.93-3.65c2.13-1.91,3.15-4.4,2.08-7.2A5.93,5.93,0,0,0,420.13,55,13.69,13.69,0,0,0,414,56.64c-3.41,2-6.71,4.19-10.17,6.1-16.29,9-18.3,25.56-10.83,39.41,5,9.3,12.39,16.69,19.68,24.17,5.71,5.87,10.5,12.54,11.23,21,.81,9.26-.33,18.45-2.32,27.56-3.2,14.66-5.66,29.44-5.59,44.53,0,6.66.23,13.34-.05,20-.32,7.49-1.92,14.65-7.2,20.49-8.52,9.44-16.38,19.32-22,30.86-3.78,7.75-10.12,12.72-18.28,15.71-11.73,4.3-22,10.86-28.84,21.66-4.68,7.38-7.61,15.66-11.18,23.61-3.92,8.75-9.75,15-19.9,16.58-5.37.83-10.75,1.42-16.12,2.18-8.42,1.18-16,4.72-23.45,8.52-5.61,2.84-11.32,1.4-12.62-3.11-2.15-7.41,3.89-23.06,12.48-25,6.79-1.52,13.55-.44,20.3-.86,8.13-.5,15.35-3,21.29-8.86,5.33-5.24,8.23-11.95,11.48-18.42,5.78-11.52,13.63-21.09,25.12-27.17,15.52-8.2,27.71-19.7,38-34,12.35-17.26,13.61-36.94,15-56.78.52-7.41,1.73-14.71,2.65-22.06,1.45-11.49,3-23-.6-34.36-2.82-8.85-8.78-15.76-14.2-23a165.17,165.17,0,0,1-15.15-23.71c-8-15.73-2.13-29.67,5.62-43.33a12.05,12.05,0,0,1,4-4.33c12.92-8.35,27.09-11.53,42.29-10.59,14.35.89,21.58-3,23.94-16.19s-.12-21.32-14.84-25.91c-1.54-.48-3.42.41-4.65-1.21H534c5.21,2.17,10.87,3,16,5.46,11.34,5.5,23.47,8.3,35.89,6.34a424.27,424.27,0,0,1,55.58-5c7.25-.18,14.67-1.58,20.5-6.84h65c5.61,6.2,7.92,14.22,11.76,21.39,7.66,14.31,25.45,17.08,36.75,5.57,7.32-7.47,8-17.57,10.48-27h22c-6.23,10.89-9.54,23-13.67,34.66-2.81,8-8.08,13.35-16.36,14.8a148.13,148.13,0,0,1-35.6,2.36,16.62,16.62,0,0,1-13-8c-3.33-5.16-5-11-7.37-16.57C717.26,16.66,710.68,8,698.32,5.6a23,23,0,0,0-21.73,6.6c-5.6,5.68-5.91,13-3.4,20.31,2.71,7.9,7.88,14.39,12.74,21,8.41,11.43,10.93,23.24,4,36.43-8.52,16.22-17.74,32-29.53,46.07-4.53,5.42-10.6,8.19-17.91,9.26-9.15,1.34-18.14-.84-27.34.53-10.24,1.52-18.15,6-25.07,13.21-7.47,7.79-9,17.8-9.94,27.73-1.53,16.41-8.25,31-14.85,45.64-2.11,4.7-6,7.12-11.61,6.74-4.87-.33-8.78-2.63-12.67-5.08-12.32-7.77-24.64-15.4-29.46-30.61-1.63-5.15-6.33-6.57-10.31-4.47-3.67,1.92-4.65,7.09-2,11.66,10.84,18.69,26.66,31.67,46.57,39.6,12.24,4.88,23.14,1.44,29.05-9.41,9.47-17.41,16.13-35.8,18.22-55.75,1.61-15.37,7.57-24,23.55-26.7,8-1.32,16.29-.29,24.45-.28,11.26,0,20.31-4.55,27.72-13,12.72-14.43,22-31,31.4-47.7,9.86-17.49,8.47-33.7-3-49.74-4-5.59-8.85-10.65-11.38-17.25-2.69-7,.8-12.27,8.25-12.37C703,18,706.55,24.46,709.82,31c2.42,4.83,3.93,10.1,6.19,15C720.12,55,726.34,62,736.43,63.82s20.52.49,30.75-.21a90.63,90.63,0,0,0,15.12-2c14.65-3.49,21.62-14.08,25.6-27.36,3.66-12.19,7.92-24,16.06-34.1h69l35.49,15.12A45.84,45.84,0,0,0,942,19.18c12.59,1.25,23.46-3.89,34.31-8.93C982.45,7.4,989.05,5.2,993.94.11ZM795.79,620.16c-7,.6-20.1,1.21-33,3-9.65,1.3-17.93,5.75-23.85,14.17-8.71,12.38-15.42,26-23.95,38.49-6.28,9.2-9.7,19.45-7,30.85,1.68,7,4.53,13.13,10.62,17.68,4.91,3.67,10.81,5.6,15.39,9.77,7.63,6.95,3.45,18.1-5,20.35-5.18,1.38-9.8-.56-14.43-2-8.94-2.76-17.94-4.46-27.28-3.21a122.12,122.12,0,0,1-34,.06c-15.35-2.24-27.48,1.93-33.3,19.77-2.37,7.27-1.78,14.68-2,22.09-.24,7.75-2,15.06-8,20.59a117.9,117.9,0,0,1-11.69,10c-10.36,7.3-15.56,17.44-16.2,29.71a197.28,197.28,0,0,0,2,42.19A26,26,0,0,0,594.47,911c6.87,5.06,15,6.53,22.81,8.85,8.46,2.52,16.66,5.43,22.61,12.45s8.69,17.59-1.8,24.89A30.67,30.67,0,0,1,622,962.79c-22,1.06-43.44-1.41-63.92-10.25a42.18,42.18,0,0,0-31.29-1.18c-9.64,3.28-19.06,7-28.49,10.82-11.06,4.42-22,8.75-34.34,7.72-8.26-.69-16.09-3.15-23.93-5.44-14.08-4.11-27.62-3.68-40.68,3.41A125,125,0,0,1,385,974.5c-6.08,2.37-8.32,6.57-6.25,10.86,2.28,4.73,6.4,5.29,12.55,1.71a11.67,11.67,0,0,0,1.3-.72c15.57-12.24,32.41-14.28,51.09-7.75,16.26,5.69,32.85,6.07,49.17-.8,9.36-3.93,18.95-7.34,28.27-11.36,12.59-5.43,25-6,37.72-.36a98.88,98.88,0,0,0,24,6.95c7,1.13,14.1,1.42,21.15,2.17,15.57,1.66,30.37-.21,43.37-9.55,8-5.78,12.61-15.66,9.71-26-3.82-13.56-12.8-22.21-25.19-27.52-7.64-3.27-15.74-5.47-23.63-8.16s-11.08-8.4-12.46-16.3c-1.33-7.59-.82-15.21-1.58-22.81-1.51-15,2.56-27.84,16-37,9.25-6.35,17.8-14.06,19.26-26.3.88-7.4,1-14.89,1.5-22.34.58-9.41,4.73-18.36,17.35-17.45,5.27.38,10.54,1.17,15.84,1.16a175.9,175.9,0,0,0,20.38-.89c11.34-1.32,22.28,1.23,33.16,4.29,12.26,3.44,21.86.64,27.57-8.33,7.69-12.07,8.73-24-3.86-34.16a69.22,69.22,0,0,0-8.69-5.57c-5.19-3-10-6.36-11.86-12.64-2.42-8-.09-15.06,3.91-21.68,6.47-10.7,13.28-21.19,19.29-32.18,5.69-10.4,14.08-16.29,26.44-17,9.57-.54,19.16-1.08,28.72-2,11.48-1.08,16.83,2.57,19.72,13.73.41,1.59.59,3.24,1.09,4.8,2.43,7.64,5.56,14.84,13,19.06,14.74,8.3,33.24-.58,35-17.8,1.06-10.28-2.9-18.73-8.05-26.9-5-8-9-16.18-7.06-26,1.5-7.58,3.51-15,7.31-21.79,4-7.19,12.15-9.85,21.8-7.65,4.47,1,8.85,2.59,13.49,2.69s8.15-2.92,8.38-6.67-3.13-6.72-7.8-7.33c-6.41-.83-12.87-1.09-19.3-1.8-11.43-1.27-20.68,2.82-26.74,13.12-2.36,4-3.86,8.34-5.61,12.59-7.36,17.93-6.35,34.84,5.5,50.73a33.62,33.62,0,0,1,5.49,12c1.55,6.22-1,12.09-6.47,14.35s-10.73.24-14.17-5.53a25.61,25.61,0,0,1-2.9-7.77C828,628.64,820.36,619.29,795.79,620.16Zm0-511.86c-7,.59-20.1,1.2-33,3-9.65,1.31-17.93,5.78-23.84,14.19-8.71,12.39-15.44,26-23.94,38.5-6.14,9-9.63,19.05-7,30.36,1.67,7.23,4.55,13.45,10.71,18.15,4.87,3.72,10.8,5.6,15.38,9.78,7.55,6.9,3.52,18.06-5,20.34-5.17,1.38-9.8-.56-14.44-2-8.93-2.77-17.94-4.44-27.27-3.19a122.51,122.51,0,0,1-34,.05c-15.31-2.23-27.47,1.91-33.28,19.8-2.37,7.27-1.78,14.68-2,22.09-.23,7.75-2,15.06-8,20.58a117.8,117.8,0,0,1-11.69,10c-10.35,7.31-15.55,17.45-16.19,29.72a199.31,199.31,0,0,0,2,42.2,26,26,0,0,0,10.36,17.32c6.87,5.06,15,6.52,22.81,8.84,8.46,2.52,16.66,5.43,22.6,12.46s8.68,17.58-1.82,24.89A30.62,30.62,0,0,1,622,450.92c-22,1.07-43.44-1.41-63.92-10.26a42.11,42.11,0,0,0-31.3-1.15c-9.62,3.29-19.16,6.81-28.46,10.86-15,6.54-30.21,10.4-46.49,5.57-7.86-2.33-15.72-4.77-23.83-5.87-17.84-2.4-31.84,8-46.81,14.86-2.91,1.33-4.29,4.89-2.43,8.6s4.89,4.6,8.59,3.43a17.24,17.24,0,0,0,5.27-2.53c15.62-12.16,32.45-14.22,51.12-7.68,16.26,5.69,32.86,6.05,49.18-.82,9.36-3.93,18.94-7.34,28.26-11.36,12.6-5.44,25-5.93,37.72-.34a98.86,98.86,0,0,0,24,6.94c7,1.13,14.11,1.42,21.15,2.17,15.58,1.67,30.38-.23,43.37-9.57,8-5.77,12.61-15.63,9.68-26-3.82-13.55-12.81-22.2-25.21-27.5-7.49-3.2-15.45-5.31-23.19-7.94-7.92-2.69-11.5-8.39-12.88-16.53-1.28-7.6-.81-15.22-1.58-22.82-1.5-15,2.58-27.86,16-37,9.46-6.45,17.91-14.44,19.43-26.78.91-7.4.8-14.93,1.34-22.38.64-8.83,4.65-17.67,16.84-16.92,5.45.34,10.88,1.12,16.34,1.16a136.27,136.27,0,0,0,20.88-1c13-1.89,25.1,2.85,37.51,5.17,16.09,3,31.87-13.73,27.9-29.62-2.35-9.41-9.13-14.4-16.94-18.73-5.38-3-10.47-6.37-12.56-12.7-2.67-8.08-.3-15.38,3.81-22.17,6.48-10.69,13.28-21.19,19.29-32.18,5.69-10.39,14.09-16.28,26.45-17,9.57-.53,19.17-1.08,28.72-2,11.22-1,16.77,2.6,19.65,13.27.47,1.74.61,3.57,1.15,5.28,2.42,7.66,5.56,14.85,13,19.05,14.74,8.29,33.24-.6,35-17.82,1-10.29-2.92-18.74-8.07-26.91-5-8-9-16.18-7-26,1.49-7.58,3.51-15,7.32-21.79,4.05-7.19,12.13-9.81,21.8-7.62a110.41,110.41,0,0,0,13,2.62c4.79.49,8.64-2.73,8.85-6.63.2-3.7-3.14-6.7-7.82-7.3-6.41-.84-12.88-1.1-19.3-1.81C865.38,44,856.15,48.11,850.07,58.4c-2.45,4.15-4.05,8.62-5.81,13-7,17.58-6.15,34.27,5.49,49.85a36.84,36.84,0,0,1,5.94,12.88A12,12,0,0,1,849,148.05c-5.26,2.18-10.66.18-13.93-5.12a26.21,26.21,0,0,1-3.12-8.21C827.94,116.75,820.35,107.43,795.76,108.3Z"/><path d="M178,1023.84H157c1.9-14.1-1.05-27.33-7.44-39.87-6.26-12.29-17-15.19-24.41-13.84-14.43,2.6-25.11,11.34-33.81,22.4-7.91,10.07-14.92,20.85-22.33,31.31H50c4.93-7.59,9.91-15.15,14.78-22.78,13-20.43,29.59-36.64,52.7-45.47,7.43-2.84,14.07-7.08,18.73-14,4.19-6.22,6.45-13.27,9.24-20.08,3.64-8.87,9.68-15.06,19-17.14,13.86-3.09,26.81-8.65,39.89-13.86,9.08-3.62,17.92-7.69,23.74-16.23,8.06-11.81,12.35-30-3.2-42a63.6,63.6,0,0,0-11-6.53c-8.25-4.06-17.33-6.1-25.36-10.7-9.57-5.48-11.9-14.1-6.12-23.25C191.16,778,212,773.08,226.7,781.32c6,3.37,12,6.9,18.18,10,15,7.45,30.56,3.33,40.8-10,9-11.7,18.65-22.81,30.79-31.57,11.44-8.26,19.35-18.82,21.93-33.32,1.86-10.47,2-20.68-.45-30.89-3.54-14.85-7.59-29.63-16-42.61-8.21-12.7-26.34-14.93-34.84-4.53-7.28,8.91-8.5,19.27-6.41,30.26,1.48,7.8,6.34,14,9.65,21,4,8.44,3.34,16-2.64,23.35-3.81,4.67-8.87,8-12.6,12.76-4.26,5.48-7.58,11.59-12,17-4.14,5.06-10.69,6.84-15.34,4.09-4.44-2.63-5.7-9-2.56-15.1a75.64,75.64,0,0,1,6.47-10c8.35-11.41,12.18-23.72,9.48-38-1.6-8.56-2.79-17.53-.08-26.06,4.65-14.67,11-28.73,15.09-43.65,1.81-6.64,8.28-8.92,15.18-7.23,9,2.19,17.05,6.78,25.81,9.56,8.43,2.68,14.45,8.43,18.63,16.13,4.64,8.52,8.88,17.27,13.88,25.56,6.68,11.09,10.13,22.77,9.37,35.8-.58,9.91-1.83,19.71-3,29.54-2,16.35-8.22,30-22.79,38.89C315.38,773.21,301,787.77,289,805c-11,15.86-26,18.34-42.17,7.89-5.11-3.29-10-7-15.31-9.87-9.41-5.11-19.23-9.29-30.12-10.11-3.32-.25-5.6,1.41-6.28,4.41-.79,3.48.13,6.75,3.78,8.33a13.86,13.86,0,0,0,5.26,1.19,36.82,36.82,0,0,1,12,2.52c8.93,3.22,16.39,8.9,24.07,14.24,20.5,14.24,43.69,10.28,58-10.14,10.93-15.57,23.4-29.48,40-39.23s26.1-24.33,29.42-42.9c1.82-10.2,2.45-20.62,3.58-30.94,1.23-11.21,1.15-22.13-3-32.58C362.06,652,352.62,637.87,344.55,623a35.75,35.75,0,0,0-18.42-16.53c-10.18-4.11-20.4-8.13-30.73-11.84a23.77,23.77,0,0,0-18.64.85c-7.68,3.56-11.52,10.07-13.68,17.74-2.7,9.6-5.15,19.29-9.63,28.25-6.7,13.38-8.06,27.52-5.25,41.87,2.43,12.48-.56,23.08-8,32.92a49.24,49.24,0,0,0-7.39,13.32c-2.72,7.76-3.79,15.71,2,22.44,6.34,7.34,14.46,10.46,24.38,8.06,8.54-2.06,13.14-8.6,17.68-15.05,5.06-7.18,10.25-14.11,16.86-20,7.78-7,12.85-15.56,12.2-26.45-.42-7.17-3.21-13.67-6.83-19.84s-6.9-12.36-7.06-19.64c-.15-6.8,3.84-12.93,8.76-14.07,4.55-1,10,2.52,13.2,8.61a21.74,21.74,0,0,1,1,2.25c5.16,12.93,10.43,26,11.7,39.86,1.5,16.39-1.19,31.69-16.13,42.33a103.09,103.09,0,0,0-18.31,16.06c-6.42,7.37-12.65,14.91-19.25,22.12A17.48,17.48,0,0,1,259.38,782c-7.92,0-14-4.33-20.41-7.91-8.19-4.59-16.14-10.27-25.89-10a51.24,51.24,0,0,0-40,19.7c-9.69,12.12-9.66,30.84,7.08,40.56,7.72,4.48,16.2,7.18,24.36,10.61,5.61,2.36,11.47,4.54,15.23,9.66,7.45,10.15,1.1,23.55-8.8,29.06a181.15,181.15,0,0,1-39.47,16.25c-7.25,2-15,2.69-21.54,6.66-9.38,5.67-14.67,14.67-17.84,24.76-4,12.63-12.16,20.18-24.39,25-15.9,6.33-28.74,17.29-40.1,30-7.27,8.18-12.88,17.46-18.61,26.66-4.42,7.09-10.12,13.32-14,20.78H14c1.71-2.21,3.35-4.48,5.14-6.62,9.54-11.41,19-22.8,25.18-36.59a34.44,34.44,0,0,1,6.37-10C62.82,958,75.88,946.51,90.44,937c13.9-9.1,25.57-19.71,31.47-35.66a111.85,111.85,0,0,1,5.91-13c4.78-9.16,12.38-13,22.47-13.52,8.21-.39,16.08,2,24.18,2,3.64,0,6.33-1.71,6.55-5.88.22-3.93-1.52-6.16-5.42-7.08-8-1.88-16.21-1.51-24.21-1.68-17.94-.38-29.37,7.3-37.18,24.93-4.93,11.14-8.51,23.31-18.89,30.77C82,927.4,69.17,937.39,56.74,948c-9.34,8-18.84,15.73-23.63,27.55C25.87,993.43,11.54,1006.1,0,1020.84v-25a89.15,89.15,0,0,1,17.14-15.77c3.44-2.33,5-5.94,3.43-10-1.38-3.64-4.86-3.67-8-3.13-2.32.4-4,2.18-5.47,4A33,33,0,0,1,0,977.85v-18a86.32,86.32,0,0,1,16.09-6.12c9.93-2.63,18.79-7.45,27.15-13.48C57.55,930,68,915.67,81.59,904.72c10.49-8.43,15-20.57,19.27-32.78,2.54-7.32,6-14.16,13.06-18,8.82-4.75,17.91-9,26.9-13.44,3.14-1.55,6.17-.54,9.05.77a133.8,133.8,0,0,0,14.59,5.8c10.63,3.43,21.15,7.16,29.75,14.71a10.14,10.14,0,0,0,5.86,2.41c2.55.26,5-.2,6.51-2.49s2-4.73.34-7.38a11.8,11.8,0,0,0-5.47-4.6c-14.41-6.4-28.52-13.51-43.72-18.07-6.71-2-8.53-5.49-8.75-12.59-.24-7.51.55-15,1.05-22.41.69-10.54,4.82-19.23,13.2-26A138.39,138.39,0,0,1,193.9,752c11.57-5.17,18.9-13.81,23.08-25.49.77-2.17,1.55-4.33,2.44-6.45,6.68-16,9.12-32,2.94-48.91-3.2-8.78-1.83-17.33,5.27-24.68a69,69,0,0,0,11.49-14.88c5.2-9.63,7.15-20,7.87-30.73.62-9.14,3.6-16.79,12.71-20.59A186.59,186.59,0,0,1,282,572.86c8.18-2.24,15.21-.23,21.88,4.42,2.84,2,5.69,4,8.7,5.7,6.74,3.87,13.79,5.87,21.62,3.37,13.4-4.27,19.09-28.26,8.85-38a67.51,67.51,0,0,0-11.18-9c-6.66-4-10.28-10-11.67-17.49-.67-3.57-.52-7.26-.84-10.88-.55-6.36-1.23-12.87.61-19.25a7.36,7.36,0,0,1,5.28-5.42c2.75-.69,4.57,1.58,6.07,3.53,2.14,2.78,2.91,6.18,3.72,9.54,1.79,7.46,3,15,6.69,22,6.36,12,19.72,17.19,29.15,15.22,10.24-2.14,20.3-5.15,30.52-7.39,8.79-1.93,17.41-5.07,26.66-4.25a9.6,9.6,0,0,1,8.93,7.85,9.32,9.32,0,0,1-6.15,9.72,19,19,0,0,1-6.89.58c-11.74-1-23,1.27-34,5-10.46,3.54-20.26,8.27-25,19.37-1.48,3.47-2.89,7-4.36,10.44-6.36,15-6.57,29.46,2.19,43.86,5.23,8.61,10.18,17.4,16.7,25.07,10.53,12.4,14.48,26.29,11.34,42.31C388.72,700,387.94,711,386.91,722c-.68,7.21-.61,14.52-2.48,21.59-5.54,20.92-17.86,36.85-36.11,48.21-7.25,4.52-14.79,8.52-21.15,14.38-9.1,8.38-14.83,19-20.14,29.85-4.33,8.89-11.11,13.52-21.24,12.89a93.71,93.71,0,0,0-11,0c-9.14.55-17.58,2.78-23.18,10.89-3.42,5-5.31,10.54-6.61,16.36-.93,4.18-1.3,8.83-5.27,11.38-10,6.45-19.05,14.54-31.18,17.53a133.42,133.42,0,0,0-33.65,13.58c-15.93,9-27.75,30.13-15.38,51.51,5.93,10.24,9.44,21.58,11.7,33.29C172.58,1010.5,174.23,1017.56,178,1023.84Z"/><path d="M0,617V598c3.33-1.29,6.56-3,10-3.82,10.83-2.65,17.38.11,23.6,9.5,2.37,3.57,4.71,7.16,7.09,10.73,4.72,7,10.88,11,19.84,10.69,14.81-.48,30.07-14.72,20.9-33.29-4.06-8.22-11.11-13.44-17.59-19.29-7.73-7-9.4-13.52-4.3-22.43,9.88-17.25,21.25-33.56,32.7-49.8,6.18-8.78,12.12-17.75,21.1-24.13,9.43-6.69,18-6.9,24-.29,7.23,7.93,10.1,28.36,5.34,37.93-3.4,6.82-9.36,11.55-14.21,17.17-9.17,10.63-13.1,22.28-8,36,3.44,9.28,8.47,17.76,13.91,26,7.62,11.51,7.42,23.07,2,35.52-4.66,10.74-13.73,16-22.94,21.45-12,7.16-25.14,12.43-36.32,20.91-9,6.82-12.85,17.2-7.2,28.78C74.87,709.65,83.65,713.1,95.75,710c10.15-2.57,17.59-9.27,25.35-15.63,5.22-4.27,9.74-9.56,16.43-11.79,3.84-1.27,7.62-1.39,10.46,1.92s2.76,6.87,1,10.64a17.05,17.05,0,0,1-6.54,7.23q-13.35,8.37-26.67,16.81a54.27,54.27,0,0,1-17.34,6.84c-6,1.36-12.41,2.09-17.65,5.82-9.5,6.75-12.37,19-7.89,31.55,1.48,4.15,3.47,8.09,4.44,12.48,1.61,7.31-1,13-8.13,14.94-5.51,1.47-11.39,1.57-16.85,3.19-10.29,3-18.16,8.56-20.54,20.26-1.49,7.38,1,14,1.91,20.91.72,5.2-1,11.53-4.68,13.77s-7.45,3.07-11.21.77c-4.82-2.94-4.9-8-4.6-12.8.87-14.08-1.83-20.65-13.17-25v-16a34.69,34.69,0,0,0,11.8-1c18.25-5.4,32.89-15,38.25-34.54,2.81-10.25,4.75-20.73,7.14-31.1A40.91,40.91,0,0,0,55,702.73c-7.08-15.93-27.41-18.51-36.84-10.34-9.61,8.34-11.69,19.69-10.69,31.54.46,5.49.93,11,.38,16.36-.49,4.81-2.16,9.79-7.78,11.62v-69c3.5-10,2.54-20,0-30v-17a5.12,5.12,0,0,0,.9-1.08c2.59-5.52,6.84-8.56,10.81-7.71,5.1,1.1,8.26,5.64,8.28,12,0,5,0,10,0,15a20,20,0,0,0,22.78,19.75,29.16,29.16,0,0,0,19.61-11.32,47.52,47.52,0,0,1,15.26-12.48c7-3.77,14.13-7.08,21-11,20-11.34,25.1-26.27,15.62-47.25-4-8.72-9.44-16.55-14.46-24.65-5.6-9-5.5-17.94.25-26.89,4.2-6.53,9.21-12.46,13.75-18.74,5.49-7.58,10.86-15.26,15.89-23.14,2.93-4.6,1.63-9.6-2.24-11.51-4.12-2-8-.16-10.5,5.14a16.1,16.1,0,0,0-.82,1.8c-1.72,5.41-4.8,10.05-8.11,14.59-6.3,8.66-13.24,16.83-19,25.9-8.33,13.13-8.64,26.12,0,39.24,4.8,7.27,9.65,14.54,13.43,22.41,7,14.5,4.24,23.95-9.66,31.95-15.22,8.77-31.48,15.58-43.44,29.56-6.07,7.1-16.11,3.54-17.3-4.91a23.53,23.53,0,0,1,.24-7.94C34.69,633.75,31,625,22.7,618.28,15.7,612.61,7.84,613.16,0,617Z"/><path d="M0,404V383c12.48-4.91,25.56-5.77,38.79-6.07,7.08-.16,14.17-.86,20.21-5.4,9.85-7.39,12.88-18.2,15-29.49,1.36-7.24,2-14.7,8.34-19.94,3.83-3.15,8.37-4.58,12.87-6,12.71-4,22-11.33,24.32-25.05A107.42,107.42,0,0,0,121,268.24c-.49-10,3.8-17.55,12-23,13.47-8.9,27.13-17.54,40.42-26.7,17.14-11.83,23.14-28.37,19.59-48.71-1.67-9.6-7.12-17.13-12.57-24.75-9.53-13.31-5.33-24.47,10.5-28,9.53-2.15,18.38-5.17,23.61-14.47,5.07-9,5.46-25.11-3.15-31.53-6.91-5.16-14.86-5.71-23-5.38-12.21.49-19.65-2.9-23.51-13-1.84-4.83-1.75-9.71,1.85-13.47s8.25-4,12.83-1.72c4.4,2.21,8.62,4.77,13,7.07,12.43,6.55,25.6,9.52,38.91,4,13.93-5.73,27.8-11.58,42.06-16.44a23.92,23.92,0,0,0,16.12-17.25A45,45,0,0,0,291,.11h16c-.14,3.33.73,6.61.85,9.86.44,12.6,6.59,21.49,17,27.87a32.49,32.49,0,0,1,8.35,7c3.63,4.46,3.75,9.91.43,14.14-3,3.78-7.63,4.61-12.94,2.36A36.69,36.69,0,0,1,312.39,56c-7.61-6-16.14-10.1-26-8.72C274.54,49,263.24,53,252.35,58.12c-11.27,5.29-16.49,14.37-17.44,26.6-.56,7.17-1.09,14.42-3.36,21.38-2.75,8.43-8.37,14.89-14.25,21.16-7.87,8.4-11,17.91-8.5,29.46,1.44,6.7,3.89,13.17,4.28,20.14.78,13.55-4.63,25.38-9.67,37.35-2.67,6.36-7.37,10.66-13.39,13.9-8.7,4.67-17.52,9.11-25.72,14.7-12.26,8.35-23,17.76-25.9,33.29-2,10.85-1.58,21.84-1.25,32.77.19,6.4-2.85,9.84-8.15,12.13-3.16,1.37-6.31,2.78-9.53,4-16.12,6.09-27.09,16.77-31.57,33.87A52.43,52.43,0,0,1,69,387.3,90.49,90.49,0,0,0,55,401.3C40.61,418.81,21.68,428.7,0,434V418a237,237,0,0,1,37.41-16.1c4.73-1.51,6.77-5.9,5.22-9.74-1.31-3.21-6-4.76-10-3C21.75,394,10.91,399.05,0,404Z"/><path d="M257,.11h22c-1.11,13.14-2.64,19-17.64,23.16a158.36,158.36,0,0,0-26.49,10.41c-12.34,6-24.54,6.28-36.82-.49-5.45-3-10.7-6.4-16.71-8.4-9.29-3.09-19.86,0-25.25,7-12.63,16.48,1.28,39.06,14.57,44.38,7.44,3,15,1.53,22.53,1.87,3.4.16,6.54.56,9.21,2.92,6.71,6,3.68,17.11-5.76,21.17a55,55,0,0,1-11.41,3c-20.59,4-27.23,26.66-19.13,41.09a88.75,88.75,0,0,0,7.55,10.95c12.47,16,10.09,39.92-7.45,51.28Q146.52,221.19,127,234.18c-9.86,6.54-17,14.68-18.27,27.32-.71,6.83-.37,13.58-.66,20.36-.42,9.87-3.9,17.6-13.88,21.16-3.39,1.2-6.74,2.53-10.12,3.74-10.88,3.91-18.12,11-20.2,22.74-.83,4.67-1.94,9.29-2.83,13.95-2.85,14.87-9.79,21.26-24.19,21.51A183.46,183.46,0,0,0,0,369V318c2.14,4.54.75,9.33.94,14,.38,9.65,5.2,16.53,13.94,18.52,3,.69,6.27.45,9.41.45,9.18,0,16.3-4.95,19.85-13.48,3.43-8.24,2-16.53.29-24.75-2-9.5,3-17.2,12.58-18.73,4.38-.69,8.81-1.12,13.13-2.05,13.34-2.87,21.5-11.53,20.09-26.84-.61-6.57-3.92-12.07-5.43-18.22-2.52-10.24-.51-17,10.19-19,3.68-.69,7.28-1.82,10.92-2.72,12.82-3.19,22.64-11.9,33.68-18.35,7.1-4.14,14.47-8.1,19.16-15.21,5.39-8.17,5.61-16.56.46-25-4.42-7.27-10.91-10.59-19.21-9.48-9.13,1.22-16.15,6.76-23.06,12.4S104,181.74,95.5,185.2C90,187.45,84.44,186.77,82,183.32c-3.24-4.55-2.4-9.2,2.41-14.15a23.21,23.21,0,0,1,5.55-4.12c9.66-5.34,19.26-10.76,29-16,12-6.49,23.11-13.52,28.9-27.08,7.11-16.62,8.1-32.22-2.89-47.57a119.77,119.77,0,0,1-11.33-20.18c-3.7-8.14-3.3-16,1.6-23.42a55.89,55.89,0,0,1,8.76-10.14C150.09,15,155,8.45,157,.11h21a36.69,36.69,0,0,0,8.81,8.55C205.33,21,231.42,19.52,249.25,8,252.33,6.06,256,4.3,257,.11Z"/><path d="M0,300V284a34.7,34.7,0,0,0,11.8-1c18.25-5.4,32.89-15,38.25-34.53,2.81-10.25,4.75-20.74,7.14-31.11A40.92,40.92,0,0,0,55,190.86c-7.08-15.93-27.41-18.51-36.84-10.33-9.61,8.34-11.69,19.68-10.69,31.53.46,5.49.93,11,.38,16.37-.49,4.81-2.16,9.79-7.78,11.62v-69c3.5-10,2.54-20,0-30v-17c.83-1.37,1.59-2.8,2.51-4.11,4.42-6.26,11.8-6.24,15.89.12a12.68,12.68,0,0,1,1.64,7.12c0,6.64-.77,13.47.5,19.88,2.89,14.72,23,18.53,34.58,10.46C60.6,153.78,63.91,148.08,69,144c9.12-7.3,20.13-11.12,30.09-16.86,19.29-11.12,24.61-26.28,15.59-46.58-4-9-9.75-17.12-14.93-25.5-5.36-8.68-5.35-17.41,0-26,2.24-3.64,5-7,7.38-10.52,4.25-6.18,10-11.32,12.93-18.41h23a13.91,13.91,0,0,1-3.85,7.3c-3.74,4.23-7.81,8.19-11.42,12.53-8.12,9.76-12.08,20.51-7.81,33.34,3.31,9.92,8.53,18.82,14.25,27.41,7.44,11.16,7.78,22.51,2.83,34.64-4.35,10.65-13,16.41-22.39,21.94C102.3,144.53,89,150.08,77.44,158.66c-9,6.72-13.11,17.13-7.7,28.67,4.84,10.33,13.83,13.95,26.09,10.83,10-2.54,17.34-9.09,25-15.34,5.35-4.39,10-9.79,16.81-12.1,3.81-1.28,7.61-1.36,10.44,2s2.69,6.9.89,10.66a17.09,17.09,0,0,1-6.56,7.2c-7.26,4.5-14.62,8.83-21.68,13.63S106,212.73,97.4,214.43c-5.74,1.14-11.73,2-16.69,5.6-9.48,6.8-12.33,19-7.83,31.57,1.48,4.14,3.48,8.08,4.44,12.47,1.6,7.29-1,13-8.18,14.91-5.5,1.47-11.39,1.57-16.84,3.18-10.28,3.06-18.16,8.57-20.52,20.29-1.48,7.39,1,14,1.93,20.9.72,5.2-1,11.52-4.71,13.76s-7.45,3.07-11.2.76c-4.79-2.95-4.89-7.95-4.59-12.8C14.08,311,11.4,304.43,0,300Z"/><path d="M1023.94,960.86v18c-2.75,2.59-5.56,5.13-8.25,7.78-8.12,8-15,17.11-24.1,24.23-6.72,5.27-14.63,8.32-21.64,13H924c-2.49-2.22-5.74-2.9-8.71-4.05-16.39-6.31-32.43-12.89-46.07-24.71-9.92-8.6-22.8-8.65-32.93-1.56-11.36,8-20,18.54-27.28,30.32H787c0-2.27,1.27-4,2.31-5.91,3.72-6.75,9.39-11.93,14.22-17.78,9.55-11.55,20-22,33.94-28.47a47.31,47.31,0,0,0,23.13-22.13c9.7-19.45,25.8-32.81,42.47-45.67,13.87-10.7,30.05-17.65,44.78-27,9.21-5.83,19.05-11.29,23.85-21.62,7.56-16.26,7.41-33.06,1.13-49.77-2.69-7.16-7.33-13.67-6.85-21.82.36-6.13,5.12-8.85,10.34-5.74a19.49,19.49,0,0,1,5.54,4.89c6.23,8,13.77,13.3,24.68,13.29,5.82,0,11.63-.54,17.44-.24v16c-1.31-.12-2.64-.15-3.93-.37-8.07-1.36-15.49-.16-21.24,6.11-6.25,6.81-6.51,15.22-5.36,23.75,1.59,11.72,2,23-9.28,30.8-16.45,11.47-32.81,23.14-50.64,32.36A150.08,150.08,0,0,0,882,948.6c-11.29,15-9.13,29.86,7.4,40.27,9.34,5.88,19.39,10.34,29.37,15,7.93,3.66,16.14,6.65,24.92,6.95,16.52.58,29.62-7.44,41.52-17.74,8.42-7.28,16.21-15.28,24.74-22.42C1014.23,967,1018.08,962.38,1023.94,960.86Z"/><path d="M1023.94,315v55c-6.15.8-10.68,4.75-15.52,8.05-24,16.37-47.3,33.93-73.46,47a44.34,44.34,0,0,0-13.76,11.26c-5.29,6.18-5.69,16.77-1.1,22.35a28.37,28.37,0,0,0,30.29,8.62c10.39-3.43,18-10.8,26.11-17.38,14.89-12,30.08-23.55,47.44-31.88v17c-11.55,4.72-20.5,13.12-29.64,21.19-7.84,6.92-15.2,14.39-23.66,20.6-12.49,9.17-25.85,12.18-40.75,6.34a238.52,238.52,0,0,1-31.83-15.47C886.67,461.1,884.79,453,893,442.9c9.82-12.11,20.19-24,33.92-31.92,21.2-12.25,42.09-24.93,62.23-38.88,14.22-9.86,20.89-22.34,17-39.85-.92-4.13-.6-8.68-.09-12.94C1006.85,312.73,1015.22,308.13,1023.94,315Z"/><path d="M1023.94,929.87v17c-11.55,4.73-20.5,13.13-29.64,21.2-7.84,6.91-15.2,14.39-23.66,20.6-12.49,9.17-25.85,12.18-40.75,6.33a238.46,238.46,0,0,1-31.83-15.46C886.67,973,884.79,964.9,893,954.77c9.82-12.12,20.19-24,33.92-31.93,21.2-12.25,42.09-24.92,62.23-38.88,14.22-9.85,20.89-22.34,17-39.85-.92-4.12-.6-8.67-.09-12.94.79-6.58,9.16-11.17,17.88-4.28v55c-6.15.8-10.68,4.75-15.52,8-24,16.37-47.3,33.93-73.46,47a44.2,44.2,0,0,0-13.76,11.26c-5.29,6.17-5.69,16.76-1.1,22.35a28.37,28.37,0,0,0,30.29,8.62c10.39-3.44,18-10.8,26.11-17.38C991.39,949.74,1006.58,938.19,1023.94,929.87Z"/><path d="M0,105.08v-19c3.33-1.3,6.56-3,10-3.82,10.83-2.65,17.38.11,23.6,9.49,2.37,3.57,4.71,7.17,7.09,10.73,4.72,7.06,10.88,11,19.84,10.69,14.81-.48,30.07-14.72,20.9-33.29C77.41,71.68,70.36,66.45,63.88,60.6c-7.73-7-9.27-13.43-4.32-22.44C66.83,24.93,75.79,12.75,84,.11h21c-5.34,7.5-10.91,14.84-16,22.53-7.39,11.28-9,23.15-2,35.31,2.85,5,6.1,9.75,9,14.7s6,10.09,8.13,15.69c5,13.32-.32,20.39-8.49,25.92a78.35,78.35,0,0,1-10.22,5.94c-12.89,6.11-25.2,12.88-34.48,24.23-3,3.63-7.3,5.6-12.41,4.22-3.86-1.05-5.72-4-6.36-7.5a22.51,22.51,0,0,1,.16-8.42c2.27-10.88-1.4-19.62-9.7-26.33C15.69,100.74,7.84,101.3,0,105.08Z"/><path d="M0,72.09v-17C8,52.07,16,49.22,22,42.67A62.77,62.77,0,0,0,31.83,27.4C36.55,17.62,43.67,9.44,49,.11H69c-1,1.51-2,3-3,4.52C59.6,15.17,51.71,24.84,46.47,36.14,41.44,47,43.34,58,51.68,66.22a114.39,114.39,0,0,0,9.16,8.41c3.45,2.75,6.88,5.8,9,9.91,2.53,5,1.44,10.73-2.63,13.86s-10.53,2.41-14.53-1.17c-4.3-3.86-6.36-9.22-9.58-13.79C35.81,73.14,26.88,66.86,13.45,69,8.86,69.69,4.59,71.44,0,72.09Z"/><path d="M0,765.91c18.69-5.29,22.8-22.37,20.38-38.59a40.47,40.47,0,0,1,.67-17.24c1.64-5.75,5.3-9,10.24-9.15,6.05-.23,10.4,2.67,12.72,8.24,2.82,6.77,2,13.46,0,20.23-3,10.52-3.33,21.75-7.86,31.83-5.66,12.57-16.3,18.87-29.36,21.65-2.24.48-4.55.69-6.82,1Z"/><path d="M0,254.05c18.69-5.3,22.8-22.38,20.38-38.6a40.43,40.43,0,0,1,.67-17.23c1.64-5.76,5.3-9,10.24-9.16,6.05-.23,10.4,2.67,12.72,8.25,2.82,6.77,2,13.45,0,20.23-3,10.52-3.33,21.75-7.86,31.82C30.56,261.94,19.92,268.24,6.87,271c-2.25.48-4.56.7-6.83,1Z"/><path d="M1023.94,915.87c-21.31,10.35-40.41,24-58.62,39-4.81,4-9.54,8.12-15.22,11a20.77,20.77,0,0,1-12,1.93c-7.14-.83-10-8.21-5.56-14a15.85,15.85,0,0,1,5.78-4.64c27.16-12.93,50.67-31.61,75.71-47.89,3.29-2.15,6.61-4.27,9.91-6.4Z"/><path d="M1023.94,404c-21.31,10.35-40.41,24-58.62,39-4.81,4-9.54,8.12-15.22,11a20.85,20.85,0,0,1-12,1.93c-7.14-.83-10-8.21-5.56-14a16,16,0,0,1,5.78-4.65c27.16-12.92,50.67-31.61,75.71-47.89,3.29-2.14,6.61-4.26,9.91-6.4Z"/><path d="M84,1023.84c7.68-10.7,14.42-22.14,24-31.4a33.78,33.78,0,0,1,14.61-8.79c7.28-2,12.89.12,16.6,6.81,5.85,10.51,7.06,21.7,4.82,33.38H121c3-4.81,6.33-9.49,9.06-14.48,2.42-4.42,1.14-8.75-2.47-10.59-3.83-1.95-8.1-.68-10,4.14-2.93,7.57-7.49,14.1-11.62,20.93Z"/><path d="M1023.94,752.91c-6,1.26-11.87,1.84-17.46-1.86-5.77-3.81-8-9.61-5.75-16.13a48.39,48.39,0,0,1,5.12-10c7.43-11.7,11.95-24.73,17.06-37.48.25-.62.27-1.27,1-1.48Z"/><path d="M1023.94,241.05c-6,1.26-11.87,1.83-17.46-1.86-5.77-3.82-8-9.61-5.75-16.14a48.31,48.31,0,0,1,5.12-10c7.43-11.7,11.95-24.73,17.06-37.49.25-.61.27-1.26,1-1.47Z"/><path d="M824,1023.84A123.27,123.27,0,0,1,838.18,1008c9-8,16.71-8.75,25.94-1.14a124.53,124.53,0,0,0,26.83,17Z"/><path d="M34,.11c-7.34,9.94-12.54,21.2-19.51,31.37A23.33,23.33,0,0,1,0,41.1v-24c5.25-5.19,9.5-11.19,14-17Z"/><path d="M664,1023.84c19.83-17.27,39.37-15.1,62,0Z"/><path d="M421,.11q-16.62,4-33.23,8-6.69,1.59-13.42,3.07c-12.12,2.62-17.62,0-23.35-11.06Z"/><path d="M773,.11c-1,4.11-1.77,8.3-3.12,12.29-1.62,4.78-4.53,8.5-10.19,8.69-5.46.18-8.93-2.75-11-7.52-2-4.45-3.78-9-5.66-13.46Z"/><path d="M319,1023.84c0-5,0-9.93,0-14.89a17.86,17.86,0,0,1,.76-4.78c.88-3.23,2.82-5.62,5.79-6s5.06,2.16,6.47,4.63c3.06,5.33,3.41,11.49,5,17.29.34,1.26.67,2.52,1,3.78Z"/><path d="M995.94,1023.84c10.37-7.92,18.17-18.51,28-27v27Z"/><path d="M968,.11c-14,7.86-28,9.05-42,0Z"/></pattern></defs><rect x="0" y="0" width="100%" height="100%" fill="url(#pattern)" mask="url(#fadeMask)" /></svg>