<svg xmlns="http://www.w3.org/2000/svg" width="512" height="512" viewBox="0 0 512 512"><path d="M0,255q10.57113-30.499,21.14225-60.998l24.81518-66.0335q1.45173-2.67474,2.90364-5.3496.09909,66.20686.19784,132.414a7.54368,7.54368,0,0,1-.1941.942Q24.43241,255.98739,0,256Z" transform="translate(0 0)" fill="#029db2"/><path d="M489.10412,190.96736,512,255v1q-24.44024-.01405-48.8811-.0278a8.66966,8.66966,0,0,1-.17478-.94046c.01843-4.65276.024-9.3056.05734-13.95825q.42229-58.96212.85327-117.92417l2.16575,4.86855Q477.56215,159.49233,489.10412,190.96736Z" transform="translate(0 0)" fill="#fe9db2"/><path d="M245.91629,4.1374,254,0h4q1.47967,1.004,2.95972,2.008,36.54153,17.96086,73.08209,35.92217-78.03882.00668-156.07718.0123Z" transform="translate(0 0)" fill="#81feb7"/><path d="M0,256q24.43241-.01263,48.8655-.0249l.24684.04156a3.24783,3.24783,0,0,0-.06435.98505c-.3501,2.95612-.75095,5.90726-1.04255,8.86914q-5.02839,51.0759-10.028,102.1546L0,257Z" transform="translate(0 0)" fill="#026fb3"/><path d="M463.11951,255.97186,512,256v1q-18.999,55.50513-37.998,111.01013-5.528-55.50531-11.05566-111.01062a3.38733,3.38733,0,0,0-.06629-.98343Z" transform="translate(0 0)" fill="#fe6eb3"/><path d="M379.976,474.794Q318.988,493.397,258,512h-2q-.06766-19.01646-.13529-38.03293l.23438.02686Q318.03754,474.394,379.976,474.794Z" transform="translate(0 0)" fill="#9e02ad"/><path d="M255.86471,473.96707Q255.93237,492.98353,256,512h-2q-61.46427-18.74264-122.92774-37.48486Q193.46932,474.24148,255.86471,473.96707Z" transform="translate(0 0)" fill="#6402ad"/><path d="M463.85473,123.14932q-.42764,58.96207-.85327,117.92417c-.03332,4.65265-.03891,9.30549-.05694,13.95813q-36.00344-56.526-72.0076-113.05171a5.99182,5.99182,0,0,0,.01861-.9067q35.58907-9.5884,71.17811-19.17683Q462.99419,122.52286,463.85473,123.14932Z" transform="translate(0 0)" fill="#f4b2d2"/><path d="M462.13364,121.89638q-35.58907,9.5884-71.17792,19.17628-.4586-.0741-.91971-.13243Q363.02686,89.9908,336.01773,39.04135q61.44991,39.46092,122.89987,78.92186Q460.52563,119.9298,462.13364,121.89638Z" transform="translate(0 0)" fill="#d7e3ca"/><path d="M458.9176,117.9632Q397.46768,78.50228,336.01752,39.041a7.44716,7.44716,0,0,0-.88181-.11393q-.06093-.45757-.126-.91458l44.92282-.87863Q414.448,72.02,448.94119,106.92806C452.419,110.45626,455.59955,114.27751,458.9176,117.9632Z" transform="translate(0 0)" fill="#d7f7a2"/><path d="M379.93255,37.13386q-22.46141.43931-44.92291.87851a6.25646,6.25646,0,0,1-.96765-.08276Q297.501,19.96881,260.95972,2.008,320.44578,19.57088,379.93255,37.13386Z" transform="translate(0 0)" fill="#b0fe9a"/><path d="M489.10412,190.96736q-11.54187-31.47489-23.08364-62.94949Q477.56244,159.49289,489.10412,190.96736Z" transform="translate(0 0)" fill="#feb496"/><path d="M49.05891,255.03284q-.09883-66.207-.19784-132.414a.53658.53658,0,0,1,.39447-.60733q35.87565,9.536,71.7523,19.0707a8.52975,8.52975,0,0,0,.05309.9607Q85.05991,198.53789,49.05891,255.03284Z" transform="translate(0 0)" fill="#0fb2d2"/><path d="M121.00779,141.08292q-35.87635-9.53552-71.75226-19.07137,1.84715-2.00561,3.6935-4.01071a16.66392,16.66392,0,0,0,2.69573-1.14441Q115.85544,77.956,176.037,39.01105,148.9966,89.96236,121.95674,140.91371,121.47818,140.97538,121.00779,141.08292Z" transform="translate(0 0)" fill="#2be4ca"/><path d="M176.03732,39.01107Q115.847,77.94294,55.64476,116.85643a16.66392,16.66392,0,0,1-2.69573,1.14441q38.85606-40.086,77.71318-80.17206,23.14571.07365,46.28991.14678-.01979.44112-.02448.88394Q176.4806,38.92409,176.03732,39.01107Z" transform="translate(0 0)" fill="#2cf7a2"/><path d="M176.95212,37.97556q-23.14458-.07326-46.28991-.14678,57.62634-16.846,115.25412-33.69144-33.9759,16.9026-67.95152,33.80551Q177.45864,37.95964,176.95212,37.97556Z" transform="translate(0 0)" fill="#52fe9a"/><path d="M45.95743,127.96848,21.14225,194.002Q33.54985,160.98526,45.95743,127.96848Z" transform="translate(0 0)" fill="#06b495"/><path d="M255.86471,473.96707q-62.39581.27425-124.79243.54807-1.60484-1.0665-3.20792-2.13211.08892-40.70088.17723-81.402l.46935.00168.46954-.01142q63.44408,41.01284,126.88817,82.02561l.23044.997Z" transform="translate(0 0)" fill="#4c0ecd"/><path d="M37.97741,368.02545q5.01014-51.07768,10.028-102.1546c.2916-2.96188.69245-5.913,1.04221-8.86926Q88.05005,323.45715,127.0531,389.913q-44.02672-9.44558-88.05346-18.8912Z" transform="translate(0 0)" fill="#1350d8"/><path d="M38.99964,371.02176q44.02673,9.44559,88.05315,18.89181a6.19838,6.19838,0,0,0,.88787.14438q.04171.46253.10124.923-.0887,40.70114-.17755,81.4021-12.45669-13.1245-24.91306-26.24854-31.4065-36.06359-62.81313-72.12723Z" transform="translate(0 0)" fill="#241fc0"/><path d="M40.13817,374.00729l62.81314,72.12723Z" transform="translate(0 0)" fill="#152195"/><path d="M256.09909,473.99393q-.11521-.49851-.22983-.9971l.2421.026q63.43372-40.98573,126.86911-81.97153.464-.03965.92889-.0694.12644,40.69295.25293,81.38587-2.09362,1.21316-4.18677,2.42633Q318.03776,474.39395,256.09909,473.99393Z" transform="translate(0 0)" fill="#b60dcc"/><path d="M462.94592,256.99966q5.52805,55.50517,11.056,111.01047l-.91336,3.01251q-44.06072,9.45955-88.12128,18.91968Q423.95681,323.47138,462.94592,256.99966Z" transform="translate(0 0)" fill="#f050d8"/><path d="M384.96713,389.94189q44.06071-9.45963,88.12143-18.91925-.44659.99519-.89349,1.9906-31.054,36.04317-62.10742,72.08582-12.96273,13.63418-25.92539,27.26849-.12644-40.69257-.25217-81.38568.0987-.45309.16288-.912A6.83443,6.83443,0,0,0,384.96713,389.94189Z" transform="translate(0 0)" fill="#de1fc1"/><path d="M410.08765,445.09906q31.05358-36.04275,62.10742-72.08582Q441.14167,409.05587,410.08765,445.09906Z" transform="translate(0 0)" fill="#f02196"/><path d="M49.05891,255.03284q36.001-56.49495,72.0016-112.99037,27.9367,56.49166,55.8747,112.98408a6.8739,6.8739,0,0,1-.09753.96637q-63.86268.01185-127.72534.02374l-.24684-.04156A7.68465,7.68465,0,0,0,49.05891,255.03284Z" transform="translate(0 0)" fill="#2b94f9"/><path d="M390.93692,141.97991q36.004,56.52578,72.0076,113.05171a8.5696,8.5696,0,0,0,.17438.94058l-.23816.04361q-63.87777-.01479-127.75763-.02869a3.69418,3.69418,0,0,1-.0752-.96094Z" transform="translate(0 0)" fill="#d894f9"/><path d="M176.95212,37.97556q.50644-.01614,1.01269-.03271,78.03821-.00654,156.077-.01272a6.32378,6.32378,0,0,0,.96783.08223q.06519.45718.12543.9152-39.12992,41.0961-78.25732,82.1907a5.84612,5.84612,0,0,0-.96375-.02657L176.92741,38.85821Q176.93233,38.41667,176.95212,37.97556Z" transform="translate(0 0)" fill="#81f7de"/><path d="M49.11234,256.01666q63.86266-.01189,127.72631-.0235l.26645.01313a8.251,8.251,0,0,0-.05513.98333Q152.49532,323.52378,127.94066,390.058a6.19838,6.19838,0,0,1-.88787-.14438q-39.00243-66.45666-78.00514-132.912A3.2583,3.2583,0,0,1,49.11234,256.01666Z" transform="translate(0 0)" fill="#2c65f8"/><path d="M335.12372,255.98682q63.8789.01433,127.757.029a3.41544,3.41544,0,0,1,.06555.9837q-38.98975,66.47174-77.979,132.94278a6.8464,6.8464,0,0,1-.89477.12723Q359.50708,323.531,334.94305,256.99313a3.659,3.659,0,0,0-.06753-.98645Z" transform="translate(0 0)" fill="#d766f9"/><path d="M390.93692,141.97991q-27.9445,56.52314-55.88931,113.046-39.03956-66.51709-78.0785-133.03369c1.97837.15657,3.97278.2022,5.93271.48606q63.57056,9.207,127.13419,18.46194.461.05859.91971.13241A6.02253,6.02253,0,0,1,390.93692,141.97991Z" transform="translate(0 0)" fill="#a8b2fe"/><path d="M390.036,140.94025q-63.56593-9.23914-127.13419-18.46194c-1.95993-.28386-3.95434-.32949-5.9324-.48595q-.04913-.43637-.09283-.8736,39.12889-41.09535,78.25848-82.1912a7.33725,7.33725,0,0,1,.88245.11343Q363.02694,89.991,390.036,140.94025Z" transform="translate(0 0)" fill="#a9e4eb"/><path d="M176.93474,255.02679q-27.93732-56.4924-55.87423-112.98432a8.61417,8.61417,0,0,1-.05267-.96022q.47032-.10653.9491-.16793c1.97748-.12513,3.97466-.11358,5.92912-.3968q63.56736-9.21182,127.12612-18.483Q215.97345,188.53063,176.93474,255.02679Z" transform="translate(0 0)" fill="#59b2fe"/><path d="M255.01218,122.03449q-63.56159,9.25162-127.12612,18.483c-1.95446.28322-3.95164.27167-5.92912.3968Q148.99665,89.96207,176.037,39.01105q.4436-.0876.89061-.15155,39.49295,41.1148,78.9874,82.23157Q255.46465,121.56216,255.01218,122.03449Z" transform="translate(0 0)" fill="#59e4eb"/><path d="M127.94066,390.058q24.55464-66.53417,49.109-133.06823Q216.54534,313.494,256.04181,369.998a7.80051,7.80051,0,0,1-.10968.94332q-63.47583,10.015-126.95165,20.03l-.46954.01142-.46935-.00168Q127.98255,390.52041,127.94066,390.058Z" transform="translate(0 0)" fill="#5250fe"/><path d="M128.98048,390.97128q63.47583-10.01495,126.95165-20.03l.20816.02784q-.01405,51.02686-.02814,102.05371l-.24289-.026Q192.42424,431.98413,128.98048,390.97128Z" transform="translate(0 0)" fill="#641fed"/><path d="M255.93213,370.94131a7.74445,7.74445,0,0,0,.1094-.94329q39.4503-56.50247,78.9011-113.00495,24.56473,66.53807,49.12988,133.07645-.06386.45945-.16242.91235-.46594.02985-.92944.06912-63.42-10.04127-126.84036-20.08187Z" transform="translate(0 0)" fill="#b050fe"/><path d="M256.14029,370.96912q63.42027,10.04076,126.84036,20.08191-63.43524,40.98622-126.86929,81.97183Q256.1266,421.996,256.14029,370.96912Z" transform="translate(0 0)" fill="#9e1fed"/><path d="M255.01218,122.03449q.452-.472.90286-.94342a5.90564,5.90564,0,0,1,.96271.02719q.04183.43791.09167.8741,39.03864,66.51656,78.07819,133.03358a3.70842,3.70842,0,0,0,.0755.96118l-.24683.01929q-78.88485-.00032-157.77118-.00012l-.26645-.01313a7.02724,7.02724,0,0,0,.09656-.96661Q215.97322,188.53077,255.01218,122.03449Z" transform="translate(0 0)" fill="#819dfe"/><path d="M177.1051,256.00629q78.886,0,157.77118.00012a3.6911,3.6911,0,0,1,.06674.98672Q295.49176,313.4955,256.04153,369.998q-39.49587-56.50416-78.99191-113.0083A8.32586,8.32586,0,0,1,177.1051,256.00629Z" transform="translate(0 0)" fill="#816efe"/></svg>